<?xml version="1.0" encoding="UTF-8"?>
<svg xmlns="http://www.w3.org/2000/svg" xmlns:xlink="http://www.w3.org/1999/xlink" width="150px" height="150px" viewBox="0 0 150 150" version="1.1">
<defs>
<linearGradient id="linear0" gradientUnits="userSpaceOnUse" x1="-58.0973" y1="135.1398" x2="52.3625" y2="14.3243" gradientTransform="matrix(1.5,0,0,1.5,0,0)">
<stop offset="0" style="stop-color:rgb(98.431373%,89.411765%,75.686275%);stop-opacity:1;"/>
<stop offset="0.5169" style="stop-color:rgb(92.54902%,82.352941%,67.058824%);stop-opacity:1;"/>
<stop offset="1" style="stop-color:rgb(77.254902%,60%,46.666667%);stop-opacity:1;"/>
</linearGradient>
<linearGradient id="linear1" gradientUnits="userSpaceOnUse" x1="-49.001" y1="143.4564" x2="61.4588" y2="22.6409" gradientTransform="matrix(1.5,0,0,1.5,0,0)">
<stop offset="0" style="stop-color:rgb(98.431373%,89.411765%,75.686275%);stop-opacity:1;"/>
<stop offset="0.5169" style="stop-color:rgb(92.54902%,82.352941%,67.058824%);stop-opacity:1;"/>
<stop offset="1" style="stop-color:rgb(77.254902%,60%,46.666667%);stop-opacity:1;"/>
</linearGradient>
<linearGradient id="linear2" gradientUnits="userSpaceOnUse" x1="-41.1423" y1="150.6415" x2="69.3176" y2="29.826" gradientTransform="matrix(1.5,0,0,1.5,0,0)">
<stop offset="0" style="stop-color:rgb(98.431373%,89.411765%,75.686275%);stop-opacity:1;"/>
<stop offset="0.5169" style="stop-color:rgb(92.54902%,82.352941%,67.058824%);stop-opacity:1;"/>
<stop offset="1" style="stop-color:rgb(77.254902%,60%,46.666667%);stop-opacity:1;"/>
</linearGradient>
<linearGradient id="linear3" gradientUnits="userSpaceOnUse" x1="-29.1911" y1="161.5683" x2="81.2687" y2="40.7528" gradientTransform="matrix(1.5,0,0,1.5,0,0)">
<stop offset="0" style="stop-color:rgb(98.431373%,89.411765%,75.686275%);stop-opacity:1;"/>
<stop offset="0.5169" style="stop-color:rgb(92.54902%,82.352941%,67.058824%);stop-opacity:1;"/>
<stop offset="1" style="stop-color:rgb(77.254902%,60%,46.666667%);stop-opacity:1;"/>
</linearGradient>
<linearGradient id="linear4" gradientUnits="userSpaceOnUse" x1="-55.9927" y1="137.064" x2="54.4672" y2="16.2485" gradientTransform="matrix(1.5,0,0,1.5,0,0)">
<stop offset="0" style="stop-color:rgb(98.431373%,89.411765%,75.686275%);stop-opacity:1;"/>
<stop offset="0.5169" style="stop-color:rgb(92.54902%,82.352941%,67.058824%);stop-opacity:1;"/>
<stop offset="1" style="stop-color:rgb(77.254902%,60%,46.666667%);stop-opacity:1;"/>
</linearGradient>
<linearGradient id="linear5" gradientUnits="userSpaceOnUse" x1="-42.8479" y1="149.0821" x2="67.612" y2="28.2666" gradientTransform="matrix(1.5,0,0,1.5,0,0)">
<stop offset="0" style="stop-color:rgb(98.431373%,89.411765%,75.686275%);stop-opacity:1;"/>
<stop offset="0.5169" style="stop-color:rgb(92.54902%,82.352941%,67.058824%);stop-opacity:1;"/>
<stop offset="1" style="stop-color:rgb(77.254902%,60%,46.666667%);stop-opacity:1;"/>
</linearGradient>
<linearGradient id="linear6" gradientUnits="userSpaceOnUse" x1="-49.3162" y1="143.1682" x2="61.1437" y2="22.3528" gradientTransform="matrix(1.5,0,0,1.5,0,0)">
<stop offset="0" style="stop-color:rgb(98.431373%,89.411765%,75.686275%);stop-opacity:1;"/>
<stop offset="0.5169" style="stop-color:rgb(92.54902%,82.352941%,67.058824%);stop-opacity:1;"/>
<stop offset="1" style="stop-color:rgb(77.254902%,60%,46.666667%);stop-opacity:1;"/>
</linearGradient>
<linearGradient id="linear7" gradientUnits="userSpaceOnUse" x1="-31.9869" y1="159.0121" x2="78.4729" y2="38.1967" gradientTransform="matrix(1.5,0,0,1.5,0,0)">
<stop offset="0" style="stop-color:rgb(98.431373%,89.411765%,75.686275%);stop-opacity:1;"/>
<stop offset="0.5169" style="stop-color:rgb(92.54902%,82.352941%,67.058824%);stop-opacity:1;"/>
<stop offset="1" style="stop-color:rgb(77.254902%,60%,46.666667%);stop-opacity:1;"/>
</linearGradient>
</defs>
<g id="surface1">
<path style=" stroke:none;fill-rule:nonzero;fill:url(#linear0);" d="M 17.25 69 L 21 69 C 26.699219 69 31.949219 65.851562 34.5 60.75 C 34.648438 60.601562 34.648438 60.300781 34.800781 60.148438 L 45.601562 37.050781 L 46.199219 35.699219 L 52.5 22.199219 C 52.800781 21.75 53.398438 21.75 53.699219 22.199219 L 60.148438 36 L 60.601562 37.050781 L 75.449219 68.699219 C 75.601562 68.851562 75.75 69 76.050781 69 C 76.5 69 76.800781 68.550781 76.648438 68.101562 L 61.949219 37.050781 L 61.5 35.851562 L 50.699219 13.050781 C 50.550781 12.898438 50.398438 12.75 50.101562 12.75 L 45.75 12.75 C 45.449219 12.75 45.300781 12.898438 45.148438 13.050781 L 34.949219 35.398438 L 34.199219 37.199219 L 23.851562 60 C 22.050781 63.75 20.398438 66.300781 18.75 67.800781 C 18.300781 68.25 17.699219 68.550781 17.25 69 Z M 17.25 69 "/>
<path style=" stroke:none;fill-rule:nonzero;fill:url(#linear1);" d="M 17.25 69.75 L 21 69.75 C 26.699219 69.75 31.949219 72.898438 34.5 78 C 34.648438 78.148438 34.648438 78.449219 34.800781 78.601562 L 45.601562 101.699219 L 46.199219 103.050781 L 52.5 116.550781 C 52.800781 117 53.398438 117 53.699219 116.550781 L 60.148438 102.75 L 60.601562 101.699219 L 75.449219 70.050781 C 75.601562 69.898438 75.75 69.75 76.050781 69.75 C 76.5 69.75 76.800781 70.199219 76.648438 70.648438 L 61.949219 101.699219 L 61.5 102.75 L 50.699219 125.550781 C 50.550781 125.699219 50.398438 125.851562 50.101562 125.851562 L 45.75 125.851562 C 45.449219 125.851562 45.300781 125.699219 45.148438 125.550781 L 34.949219 103.199219 L 34.199219 101.398438 L 23.851562 78.601562 C 22.050781 74.851562 20.398438 72.300781 18.75 70.800781 C 18.300781 70.351562 17.699219 70.050781 17.25 69.75 Z M 17.25 69.75 "/>
<path style=" stroke:none;fill-rule:nonzero;fill:url(#linear2);" d="M 132.75 74.699219 L 127.648438 74.699219 C 120.148438 74.699219 113.101562 70.5 109.800781 63.75 C 109.648438 63.449219 109.5 63.148438 109.5 63 L 95.25 32.25 L 94.351562 30.449219 L 85.949219 12.449219 C 85.648438 11.851562 84.75 11.851562 84.449219 12.449219 L 75.898438 30.75 L 75.300781 32.101562 L 55.5 74.25 C 55.351562 74.550781 55.050781 74.699219 54.75 74.699219 C 54.148438 74.699219 53.699219 74.101562 54 73.5 L 73.5 32.25 L 74.101562 30.898438 L 88.351562 0.601562 C 88.5 0.148438 88.800781 0 89.101562 0 L 94.949219 0 C 95.25 0 95.550781 0.148438 95.699219 0.449219 L 109.199219 30.148438 L 110.25 32.550781 L 124.199219 63 C 126.601562 67.949219 128.851562 71.398438 130.949219 73.351562 C 131.398438 73.800781 132 74.25 132.75 74.699219 Z M 132.75 74.699219 "/>
<path style=" stroke:none;fill-rule:nonzero;fill:url(#linear3);" d="M 132.75 75.300781 L 127.648438 75.300781 C 120.148438 75.300781 113.101562 79.5 109.800781 86.25 C 109.648438 86.550781 109.5 86.851562 109.5 87 L 95.25 117.75 L 94.351562 119.550781 L 85.949219 137.550781 C 85.648438 138.148438 84.75 138.148438 84.449219 137.550781 L 75.898438 119.25 L 75.300781 117.898438 L 55.5 75.75 C 55.351562 75.449219 55.050781 75.300781 54.75 75.300781 C 54.148438 75.300781 53.699219 75.898438 54 76.5 L 73.5 117.75 L 74.101562 119.101562 L 88.351562 149.398438 C 88.5 149.699219 88.800781 149.851562 89.101562 149.851562 L 94.949219 149.851562 C 95.25 149.851562 95.550781 149.699219 95.699219 149.398438 L 109.199219 119.699219 L 110.25 117.300781 L 124.199219 87 C 126.601562 82.050781 128.851562 78.601562 130.949219 76.648438 C 131.398438 76.199219 132 75.75 132.75 75.300781 Z M 132.75 75.300781 "/>
<path style=" stroke:none;fill-rule:nonzero;fill:url(#linear4);" d="M 76.199219 69.601562 C 76.050781 69.601562 75.75 69.449219 75.75 69.300781 C 65.398438 55.5 53.398438 42.75 40.050781 31.351562 C 39.75 31.050781 39.75 30.75 40.050781 30.449219 C 40.351562 30.148438 40.648438 30.148438 40.949219 30.449219 C 54.449219 42 66.449219 54.75 76.800781 68.550781 C 76.949219 68.851562 76.949219 69.300781 76.648438 69.449219 C 76.5 69.601562 76.351562 69.601562 76.199219 69.601562 Z M 76.199219 69.601562 "/>
<path style=" stroke:none;fill-rule:nonzero;fill:url(#linear5);" d="M 40.5 108.300781 C 40.351562 108.300781 40.199219 108.148438 40.050781 108 C 39.75 107.699219 39.898438 107.25 40.050781 107.101562 C 53.398438 95.699219 65.398438 82.949219 75.75 69.148438 C 75.898438 68.851562 76.351562 68.851562 76.648438 69 C 76.949219 69.148438 76.949219 69.601562 76.800781 69.898438 C 66.449219 83.699219 54.300781 96.601562 40.949219 108 C 40.800781 108.300781 40.648438 108.300781 40.5 108.300781 Z M 40.5 108.300781 "/>
<path style=" stroke:none;fill-rule:nonzero;fill:url(#linear6);" d="M 54.300781 75.601562 C 54.148438 75.601562 54 75.601562 53.851562 75.449219 C 53.398438 75.148438 53.398438 74.550781 53.699219 74.25 C 67.5 55.800781 83.550781 38.851562 101.398438 23.550781 C 101.699219 23.25 102.300781 23.25 102.601562 23.699219 C 102.898438 24 102.898438 24.601562 102.449219 24.898438 C 84.75 40.050781 68.699219 57 55.050781 75.148438 C 54.898438 75.449219 54.601562 75.601562 54.300781 75.601562 Z M 54.300781 75.601562 "/>
<path style=" stroke:none;fill-rule:nonzero;fill:url(#linear7);" d="M 102 126.75 C 101.851562 126.75 101.550781 126.75 101.398438 126.601562 C 83.550781 111.148438 67.5 94.199219 53.699219 75.75 C 53.398438 75.300781 53.550781 74.851562 53.851562 74.550781 C 54.300781 74.25 54.75 74.398438 55.050781 74.699219 C 68.699219 93 84.75 109.949219 102.449219 125.101562 C 102.75 125.398438 102.898438 126 102.601562 126.300781 C 102.449219 126.601562 102.148438 126.75 102 126.75 Z M 102 126.75 "/>
</g>
</svg>
