<?xml version="1.0" encoding="UTF-8"?>
<svg xmlns="http://www.w3.org/2000/svg" xmlns:xlink="http://www.w3.org/1999/xlink" width="300px" height="50px" viewBox="0 0 300 50" version="1.1">
<defs>
<linearGradient id="linear0" gradientUnits="userSpaceOnUse" x1="-6.635" y1="70.8942" x2="120.4999" y2="-65.1401" >
<stop offset="0" style="stop-color:rgb(98.431373%,89.411765%,75.686275%);stop-opacity:1;"/>
<stop offset="0.5169" style="stop-color:rgb(92.54902%,82.352941%,67.058824%);stop-opacity:1;"/>
<stop offset="1" style="stop-color:rgb(77.254902%,60%,46.666667%);stop-opacity:1;"/>
</linearGradient>
<linearGradient id="linear1" gradientUnits="userSpaceOnUse" x1="7.959" y1="84.5335" x2="135.0939" y2="-51.5009" >
<stop offset="0" style="stop-color:rgb(98.431373%,89.411765%,75.686275%);stop-opacity:1;"/>
<stop offset="0.5169" style="stop-color:rgb(92.54902%,82.352941%,67.058824%);stop-opacity:1;"/>
<stop offset="1" style="stop-color:rgb(77.254902%,60%,46.666667%);stop-opacity:1;"/>
</linearGradient>
<linearGradient id="linear2" gradientUnits="userSpaceOnUse" x1="49.1177" y1="122.9995" x2="176.2525" y2="-13.0348" >
<stop offset="0" style="stop-color:rgb(98.431373%,89.411765%,75.686275%);stop-opacity:1;"/>
<stop offset="0.5169" style="stop-color:rgb(92.54902%,82.352941%,67.058824%);stop-opacity:1;"/>
<stop offset="1" style="stop-color:rgb(77.254902%,60%,46.666667%);stop-opacity:1;"/>
</linearGradient>
<linearGradient id="linear3" gradientUnits="userSpaceOnUse" x1="75.8356" y1="147.9695" x2="202.9705" y2="11.9352" >
<stop offset="0" style="stop-color:rgb(98.431373%,89.411765%,75.686275%);stop-opacity:1;"/>
<stop offset="0.5169" style="stop-color:rgb(92.54902%,82.352941%,67.058824%);stop-opacity:1;"/>
<stop offset="1" style="stop-color:rgb(77.254902%,60%,46.666667%);stop-opacity:1;"/>
</linearGradient>
<linearGradient id="linear4" gradientUnits="userSpaceOnUse" x1="100.7826" y1="171.2845" x2="227.9175" y2="35.2502" >
<stop offset="0" style="stop-color:rgb(98.431373%,89.411765%,75.686275%);stop-opacity:1;"/>
<stop offset="0.5169" style="stop-color:rgb(92.54902%,82.352941%,67.058824%);stop-opacity:1;"/>
<stop offset="1" style="stop-color:rgb(77.254902%,60%,46.666667%);stop-opacity:1;"/>
</linearGradient>
<linearGradient id="linear5" gradientUnits="userSpaceOnUse" x1="129.6535" y1="198.2666" x2="256.7884" y2="62.2323" >
<stop offset="0" style="stop-color:rgb(98.431373%,89.411765%,75.686275%);stop-opacity:1;"/>
<stop offset="0.5169" style="stop-color:rgb(92.54902%,82.352941%,67.058824%);stop-opacity:1;"/>
<stop offset="1" style="stop-color:rgb(77.254902%,60%,46.666667%);stop-opacity:1;"/>
</linearGradient>
<linearGradient id="linear6" gradientUnits="userSpaceOnUse" x1="10.1968" y1="86.6248" x2="137.3317" y2="-49.4095" >
<stop offset="0" style="stop-color:rgb(98.431373%,89.411765%,75.686275%);stop-opacity:1;"/>
<stop offset="0.5169" style="stop-color:rgb(92.54902%,82.352941%,67.058824%);stop-opacity:1;"/>
<stop offset="1" style="stop-color:rgb(77.254902%,60%,46.666667%);stop-opacity:1;"/>
</linearGradient>
<linearGradient id="linear7" gradientUnits="userSpaceOnUse" x1="41.4975" y1="115.8778" x2="168.6324" y2="-20.1565" >
<stop offset="0" style="stop-color:rgb(98.431373%,89.411765%,75.686275%);stop-opacity:1;"/>
<stop offset="0.5169" style="stop-color:rgb(92.54902%,82.352941%,67.058824%);stop-opacity:1;"/>
<stop offset="1" style="stop-color:rgb(77.254902%,60%,46.666667%);stop-opacity:1;"/>
</linearGradient>
<linearGradient id="linear8" gradientUnits="userSpaceOnUse" x1="-14.2673" y1="63.7612" x2="112.8676" y2="-72.2731" >
<stop offset="0" style="stop-color:rgb(98.431373%,89.411765%,75.686275%);stop-opacity:1;"/>
<stop offset="0.5169" style="stop-color:rgb(92.54902%,82.352941%,67.058824%);stop-opacity:1;"/>
<stop offset="1" style="stop-color:rgb(77.254902%,60%,46.666667%);stop-opacity:1;"/>
</linearGradient>
</defs>
<g id="surface1">
<path style=" stroke:none;fill-rule:nonzero;fill:url(#linear0);" d="M 50.199219 48.699219 L 47 48.699219 C 42.199219 48.699219 37.699219 46.101562 35.601562 41.699219 C 35.5 41.5 35.398438 41.398438 35.398438 41.199219 L 26.398438 21.699219 L 25.898438 20.601562 L 20.601562 9.199219 C 20.398438 8.800781 19.800781 8.800781 19.601562 9.199219 L 14.101562 20.898438 L 13.699219 21.800781 L 1.199219 48.398438 C 1.101562 48.601562 0.898438 48.699219 0.699219 48.699219 C 0.300781 48.699219 0 48.300781 0.199219 47.898438 L 12.5 21.699219 L 12.898438 20.800781 L 22 1.601562 C 22.101562 1.398438 22.300781 1.300781 22.5 1.300781 L 26.199219 1.300781 C 26.398438 1.300781 26.601562 1.398438 26.699219 1.601562 L 35.300781 20.5 L 36 22 L 44.800781 41.300781 C 46.300781 44.398438 47.699219 46.601562 49.101562 47.898438 C 49.398438 48.199219 49.800781 48.5 50.199219 48.699219 Z M 50.199219 48.699219 "/>
<path style=" stroke:none;fill-rule:nonzero;fill:url(#linear1);" d="M 96.699219 1.601562 L 79.101562 39 C 78.898438 39.398438 78.300781 39.398438 78.101562 39 C 78.101562 39 60.898438 2.800781 59.800781 1.5 C 59.699219 1.398438 59.398438 1.300781 59.398438 1.300781 L 51.699219 1.300781 C 51.300781 1.300781 51 1.800781 51.300781 2.101562 C 52 3.199219 52.800781 4.601562 53.5 6.199219 L 73.199219 48.398438 C 73.300781 48.601562 73.5 48.699219 73.699219 48.699219 L 75.300781 48.699219 C 75.5 48.699219 75.699219 48.601562 75.800781 48.398438 L 97.800781 2 C 98 1.601562 97.699219 1.199219 97.300781 1.199219 L 97.101562 1.199219 C 96.898438 1.300781 96.699219 1.398438 96.699219 1.601562 Z M 96.699219 1.601562 "/>
<path style=" stroke:none;fill-rule:nonzero;fill:url(#linear2);" d="M 154.699219 48.699219 L 151.5 48.699219 C 146.699219 48.699219 142.199219 46.101562 140.101562 41.699219 C 140 41.5 139.898438 41.398438 139.898438 41.199219 L 125 9.199219 C 124.800781 8.800781 124.199219 8.800781 124 9.199219 L 105.601562 48.398438 C 105.5 48.601562 105.300781 48.699219 105.101562 48.699219 C 104.699219 48.699219 104.398438 48.300781 104.601562 47.898438 L 126.398438 1.5 C 126.5 1.300781 126.699219 1.199219 126.898438 1.199219 L 130.601562 1.199219 C 130.800781 1.199219 131 1.300781 131.101562 1.5 L 149.199219 41.199219 C 150.699219 44.300781 152.101562 46.5 153.5 47.800781 C 153.800781 48.199219 154.199219 48.5 154.699219 48.699219 Z M 154.699219 48.699219 "/>
<path style=" stroke:none;fill-rule:nonzero;fill:url(#linear3);" d="M 209.101562 1.800781 L 209.101562 36.5 C 209.101562 37 208.5 37.199219 208.199219 36.898438 L 176.601562 1.601562 C 176.398438 1.5 176.101562 1.398438 175.898438 1.300781 L 169.199219 1.300781 C 168.800781 1.300781 168.601562 1.699219 168.699219 2 C 169.199219 3.199219 169.5 4.699219 169.5 6.398438 L 169.5 48.101562 C 169.5 48.398438 169.699219 48.601562 170 48.601562 L 170.300781 48.601562 C 170.601562 48.601562 170.800781 48.398438 170.800781 48.101562 L 170.800781 9.101562 C 170.800781 8.601562 171.398438 8.398438 171.699219 8.699219 L 204.601562 45.300781 C 206.5 47.398438 209.300781 48.699219 212.101562 48.699219 C 212.398438 48.699219 212.601562 48.5 212.601562 48.199219 L 212.601562 1.800781 C 212.601562 1.5 212.398438 1.300781 212.101562 1.300781 L 209.5 1.300781 C 209.300781 1.300781 209.101562 1.5 209.101562 1.800781 Z M 209.101562 1.800781 "/>
<path style=" stroke:none;fill-rule:nonzero;fill:url(#linear4);" d="M 273.101562 1.699219 L 273.101562 1.800781 C 273.101562 2.101562 272.898438 2.300781 272.601562 2.300781 L 252.699219 2.300781 C 252.398438 2.300781 252.199219 2.5 252.199219 2.800781 L 252.199219 48.101562 C 252.199219 48.398438 252 48.601562 251.699219 48.601562 L 244.398438 48.601562 C 244.101562 48.601562 243.898438 48.398438 243.898438 48.101562 L 243.898438 2.898438 C 243.898438 2.601562 243.699219 2.398438 243.398438 2.398438 L 223.5 2.398438 C 223.199219 2.398438 223 2.199219 223 1.898438 L 223 1.699219 C 223 1.398438 223.199219 1.199219 223.5 1.199219 L 272.699219 1.199219 C 272.898438 1.199219 273.101562 1.398438 273.101562 1.699219 Z M 273.101562 1.699219 "/>
<path style=" stroke:none;fill-rule:nonzero;fill:url(#linear5);" d="M 298.101562 47.101562 C 295.300781 47.101562 293.5 46.300781 292.699219 44.800781 C 291.898438 43.300781 291.5 41.199219 291.5 38.699219 L 291.5 1.699219 C 291.5 1.398438 291.300781 1.199219 291 1.199219 L 283.699219 1.199219 C 283.398438 1.199219 283.199219 1.398438 283.199219 1.699219 L 283.199219 38.601562 C 283.199219 41.398438 283.398438 43.5 283.898438 45 C 284.398438 46.5 285.300781 47.398438 286.5 47.898438 C 287.699219 48.398438 289.398438 48.699219 291.601562 48.699219 L 299.398438 48.699219 C 299.699219 48.699219 299.898438 48.5 299.898438 48.199219 L 299.898438 47.601562 C 299.898438 47.300781 299.699219 47.101562 299.398438 47.101562 Z M 298.101562 47.101562 "/>
<path style=" stroke:none;fill-rule:nonzero;fill:url(#linear6);" d="M 84 29 C 78.398438 20.101562 73.5 10.800781 69.601562 1.300781 L 70.601562 0.898438 C 74.5 10.398438 79.398438 19.601562 85 28.398438 Z M 84 29 "/>
<path style=" stroke:none;fill-rule:nonzero;fill:url(#linear7);" d="M 105.300781 49.101562 L 104.398438 48.398438 C 113.101562 36.800781 123.300781 26 134.601562 16.398438 L 135.300781 17.199219 C 124.101562 26.800781 114 37.5 105.300781 49.101562 Z M 105.300781 49.101562 "/>
<path style=" stroke:none;fill-rule:nonzero;fill:url(#linear8);" d="M 0.898438 49.101562 L 0 48.398438 C 8.699219 36.699219 18.898438 25.898438 30.300781 16.199219 L 31 17 C 19.699219 26.699219 9.601562 37.5 0.898438 49.101562 Z M 0.898438 49.101562 "/>
</g>
</svg>
