<?xml version="1.0" encoding="UTF-8"?>
<svg xmlns="http://www.w3.org/2000/svg" xmlns:xlink="http://www.w3.org/1999/xlink" width="300px" height="85px" viewBox="0 0 300 85" version="1.1">
<defs>
<linearGradient id="linear0" gradientUnits="userSpaceOnUse" x1="39.6104" y1="115.2477" x2="166.7452" y2="-20.7866" >
<stop offset="0" style="stop-color:rgb(98.431373%,89.411765%,75.686275%);stop-opacity:1;"/>
<stop offset="0.5169" style="stop-color:rgb(92.54902%,82.352941%,67.058824%);stop-opacity:1;"/>
<stop offset="1" style="stop-color:rgb(77.254902%,60%,46.666667%);stop-opacity:1;"/>
</linearGradient>
<linearGradient id="linear1" gradientUnits="userSpaceOnUse" x1="45.4792" y1="120.7325" x2="172.614" y2="-15.3018" >
<stop offset="0" style="stop-color:rgb(98.431373%,89.411765%,75.686275%);stop-opacity:1;"/>
<stop offset="0.5169" style="stop-color:rgb(92.54902%,82.352941%,67.058824%);stop-opacity:1;"/>
<stop offset="1" style="stop-color:rgb(77.254902%,60%,46.666667%);stop-opacity:1;"/>
</linearGradient>
<linearGradient id="linear2" gradientUnits="userSpaceOnUse" x1="50.1411" y1="125.0894" x2="177.2759" y2="-10.9449" >
<stop offset="0" style="stop-color:rgb(98.431373%,89.411765%,75.686275%);stop-opacity:1;"/>
<stop offset="0.5169" style="stop-color:rgb(92.54902%,82.352941%,67.058824%);stop-opacity:1;"/>
<stop offset="1" style="stop-color:rgb(77.254902%,60%,46.666667%);stop-opacity:1;"/>
</linearGradient>
<linearGradient id="linear3" gradientUnits="userSpaceOnUse" x1="55.7876" y1="130.3666" x2="182.9224" y2="-5.6678" >
<stop offset="0" style="stop-color:rgb(98.431373%,89.411765%,75.686275%);stop-opacity:1;"/>
<stop offset="0.5169" style="stop-color:rgb(92.54902%,82.352941%,67.058824%);stop-opacity:1;"/>
<stop offset="1" style="stop-color:rgb(77.254902%,60%,46.666667%);stop-opacity:1;"/>
</linearGradient>
<linearGradient id="linear4" gradientUnits="userSpaceOnUse" x1="60.323" y1="134.6053" x2="187.4579" y2="-1.429" >
<stop offset="0" style="stop-color:rgb(98.431373%,89.411765%,75.686275%);stop-opacity:1;"/>
<stop offset="0.5169" style="stop-color:rgb(92.54902%,82.352941%,67.058824%);stop-opacity:1;"/>
<stop offset="1" style="stop-color:rgb(77.254902%,60%,46.666667%);stop-opacity:1;"/>
</linearGradient>
<linearGradient id="linear5" gradientUnits="userSpaceOnUse" x1="64.8044" y1="138.7935" x2="191.9393" y2="2.7592" >
<stop offset="0" style="stop-color:rgb(98.431373%,89.411765%,75.686275%);stop-opacity:1;"/>
<stop offset="0.5169" style="stop-color:rgb(92.54902%,82.352941%,67.058824%);stop-opacity:1;"/>
<stop offset="1" style="stop-color:rgb(77.254902%,60%,46.666667%);stop-opacity:1;"/>
</linearGradient>
<linearGradient id="linear6" gradientUnits="userSpaceOnUse" x1="70.2077" y1="143.8433" x2="197.3425" y2="7.809" >
<stop offset="0" style="stop-color:rgb(98.431373%,89.411765%,75.686275%);stop-opacity:1;"/>
<stop offset="0.5169" style="stop-color:rgb(92.54902%,82.352941%,67.058824%);stop-opacity:1;"/>
<stop offset="1" style="stop-color:rgb(77.254902%,60%,46.666667%);stop-opacity:1;"/>
</linearGradient>
<linearGradient id="linear7" gradientUnits="userSpaceOnUse" x1="75.9048" y1="149.1677" x2="203.0396" y2="13.1334" >
<stop offset="0" style="stop-color:rgb(98.431373%,89.411765%,75.686275%);stop-opacity:1;"/>
<stop offset="0.5169" style="stop-color:rgb(92.54902%,82.352941%,67.058824%);stop-opacity:1;"/>
<stop offset="1" style="stop-color:rgb(77.254902%,60%,46.666667%);stop-opacity:1;"/>
</linearGradient>
<linearGradient id="linear8" gradientUnits="userSpaceOnUse" x1="81.0171" y1="153.9455" x2="208.1519" y2="17.9112" >
<stop offset="0" style="stop-color:rgb(98.431373%,89.411765%,75.686275%);stop-opacity:1;"/>
<stop offset="0.5169" style="stop-color:rgb(92.54902%,82.352941%,67.058824%);stop-opacity:1;"/>
<stop offset="1" style="stop-color:rgb(77.254902%,60%,46.666667%);stop-opacity:1;"/>
</linearGradient>
<linearGradient id="linear9" gradientUnits="userSpaceOnUse" x1="90.1175" y1="162.4506" x2="217.2524" y2="26.4163" >
<stop offset="0" style="stop-color:rgb(98.431373%,89.411765%,75.686275%);stop-opacity:1;"/>
<stop offset="0.5169" style="stop-color:rgb(92.54902%,82.352941%,67.058824%);stop-opacity:1;"/>
<stop offset="1" style="stop-color:rgb(77.254902%,60%,46.666667%);stop-opacity:1;"/>
</linearGradient>
<linearGradient id="linear10" gradientUnits="userSpaceOnUse" x1="94.8824" y1="166.9038" x2="222.0173" y2="30.8695" >
<stop offset="0" style="stop-color:rgb(98.431373%,89.411765%,75.686275%);stop-opacity:1;"/>
<stop offset="0.5169" style="stop-color:rgb(92.54902%,82.352941%,67.058824%);stop-opacity:1;"/>
<stop offset="1" style="stop-color:rgb(77.254902%,60%,46.666667%);stop-opacity:1;"/>
</linearGradient>
<linearGradient id="linear11" gradientUnits="userSpaceOnUse" x1="100.8376" y1="172.4693" x2="227.9724" y2="36.435" >
<stop offset="0" style="stop-color:rgb(98.431373%,89.411765%,75.686275%);stop-opacity:1;"/>
<stop offset="0.5169" style="stop-color:rgb(92.54902%,82.352941%,67.058824%);stop-opacity:1;"/>
<stop offset="1" style="stop-color:rgb(77.254902%,60%,46.666667%);stop-opacity:1;"/>
</linearGradient>
<linearGradient id="linear12" gradientUnits="userSpaceOnUse" x1="104.467" y1="175.8613" x2="231.6019" y2="39.827" >
<stop offset="0" style="stop-color:rgb(98.431373%,89.411765%,75.686275%);stop-opacity:1;"/>
<stop offset="0.5169" style="stop-color:rgb(92.54902%,82.352941%,67.058824%);stop-opacity:1;"/>
<stop offset="1" style="stop-color:rgb(77.254902%,60%,46.666667%);stop-opacity:1;"/>
</linearGradient>
<linearGradient id="linear13" gradientUnits="userSpaceOnUse" x1="110.1135" y1="181.1385" x2="237.2484" y2="45.1042" >
<stop offset="0" style="stop-color:rgb(98.431373%,89.411765%,75.686275%);stop-opacity:1;"/>
<stop offset="0.5169" style="stop-color:rgb(92.54902%,82.352941%,67.058824%);stop-opacity:1;"/>
<stop offset="1" style="stop-color:rgb(77.254902%,60%,46.666667%);stop-opacity:1;"/>
</linearGradient>
<linearGradient id="linear14" gradientUnits="userSpaceOnUse" x1="114.6489" y1="185.3772" x2="241.7838" y2="49.3429" >
<stop offset="0" style="stop-color:rgb(98.431373%,89.411765%,75.686275%);stop-opacity:1;"/>
<stop offset="0.5169" style="stop-color:rgb(92.54902%,82.352941%,67.058824%);stop-opacity:1;"/>
<stop offset="1" style="stop-color:rgb(77.254902%,60%,46.666667%);stop-opacity:1;"/>
</linearGradient>
<linearGradient id="linear15" gradientUnits="userSpaceOnUse" x1="120.214" y1="190.5782" x2="247.3489" y2="54.5438" >
<stop offset="0" style="stop-color:rgb(98.431373%,89.411765%,75.686275%);stop-opacity:1;"/>
<stop offset="0.5169" style="stop-color:rgb(92.54902%,82.352941%,67.058824%);stop-opacity:1;"/>
<stop offset="1" style="stop-color:rgb(77.254902%,60%,46.666667%);stop-opacity:1;"/>
</linearGradient>
<linearGradient id="linear16" gradientUnits="userSpaceOnUse" x1="-6.635" y1="72.0277" x2="120.4999" y2="-64.0066" >
<stop offset="0" style="stop-color:rgb(98.431373%,89.411765%,75.686275%);stop-opacity:1;"/>
<stop offset="0.5169" style="stop-color:rgb(92.54902%,82.352941%,67.058824%);stop-opacity:1;"/>
<stop offset="1" style="stop-color:rgb(77.254902%,60%,46.666667%);stop-opacity:1;"/>
</linearGradient>
<linearGradient id="linear17" gradientUnits="userSpaceOnUse" x1="7.959" y1="85.667" x2="135.0939" y2="-50.3673" >
<stop offset="0" style="stop-color:rgb(98.431373%,89.411765%,75.686275%);stop-opacity:1;"/>
<stop offset="0.5169" style="stop-color:rgb(92.54902%,82.352941%,67.058824%);stop-opacity:1;"/>
<stop offset="1" style="stop-color:rgb(77.254902%,60%,46.666667%);stop-opacity:1;"/>
</linearGradient>
<linearGradient id="linear18" gradientUnits="userSpaceOnUse" x1="49.1177" y1="124.133" x2="176.2525" y2="-11.9013" >
<stop offset="0" style="stop-color:rgb(98.431373%,89.411765%,75.686275%);stop-opacity:1;"/>
<stop offset="0.5169" style="stop-color:rgb(92.54902%,82.352941%,67.058824%);stop-opacity:1;"/>
<stop offset="1" style="stop-color:rgb(77.254902%,60%,46.666667%);stop-opacity:1;"/>
</linearGradient>
<linearGradient id="linear19" gradientUnits="userSpaceOnUse" x1="75.8356" y1="149.103" x2="202.9705" y2="13.0687" >
<stop offset="0" style="stop-color:rgb(98.431373%,89.411765%,75.686275%);stop-opacity:1;"/>
<stop offset="0.5169" style="stop-color:rgb(92.54902%,82.352941%,67.058824%);stop-opacity:1;"/>
<stop offset="1" style="stop-color:rgb(77.254902%,60%,46.666667%);stop-opacity:1;"/>
</linearGradient>
<linearGradient id="linear20" gradientUnits="userSpaceOnUse" x1="100.7826" y1="172.418" x2="227.9175" y2="36.3837" >
<stop offset="0" style="stop-color:rgb(98.431373%,89.411765%,75.686275%);stop-opacity:1;"/>
<stop offset="0.5169" style="stop-color:rgb(92.54902%,82.352941%,67.058824%);stop-opacity:1;"/>
<stop offset="1" style="stop-color:rgb(77.254902%,60%,46.666667%);stop-opacity:1;"/>
</linearGradient>
<linearGradient id="linear21" gradientUnits="userSpaceOnUse" x1="129.6535" y1="199.4001" x2="256.7884" y2="63.3658" >
<stop offset="0" style="stop-color:rgb(98.431373%,89.411765%,75.686275%);stop-opacity:1;"/>
<stop offset="0.5169" style="stop-color:rgb(92.54902%,82.352941%,67.058824%);stop-opacity:1;"/>
<stop offset="1" style="stop-color:rgb(77.254902%,60%,46.666667%);stop-opacity:1;"/>
</linearGradient>
<linearGradient id="linear22" gradientUnits="userSpaceOnUse" x1="10.1968" y1="87.7584" x2="137.3317" y2="-48.276" >
<stop offset="0" style="stop-color:rgb(98.431373%,89.411765%,75.686275%);stop-opacity:1;"/>
<stop offset="0.5169" style="stop-color:rgb(92.54902%,82.352941%,67.058824%);stop-opacity:1;"/>
<stop offset="1" style="stop-color:rgb(77.254902%,60%,46.666667%);stop-opacity:1;"/>
</linearGradient>
<linearGradient id="linear23" gradientUnits="userSpaceOnUse" x1="41.4975" y1="117.0114" x2="168.6324" y2="-19.023" >
<stop offset="0" style="stop-color:rgb(98.431373%,89.411765%,75.686275%);stop-opacity:1;"/>
<stop offset="0.5169" style="stop-color:rgb(92.54902%,82.352941%,67.058824%);stop-opacity:1;"/>
<stop offset="1" style="stop-color:rgb(77.254902%,60%,46.666667%);stop-opacity:1;"/>
</linearGradient>
<linearGradient id="linear24" gradientUnits="userSpaceOnUse" x1="-14.2673" y1="64.8947" x2="112.8676" y2="-71.1396" >
<stop offset="0" style="stop-color:rgb(98.431373%,89.411765%,75.686275%);stop-opacity:1;"/>
<stop offset="0.5169" style="stop-color:rgb(92.54902%,82.352941%,67.058824%);stop-opacity:1;"/>
<stop offset="1" style="stop-color:rgb(77.254902%,60%,46.666667%);stop-opacity:1;"/>
</linearGradient>
</defs>
<g id="surface1">
<path style=" stroke:none;fill-rule:nonzero;fill:url(#linear0);" d="M 77.800781 76 C 78.199219 76.300781 78.601562 76.601562 78.800781 77.101562 C 79 77.5 79.101562 78 79.101562 78.5 C 79.101562 79.101562 79 79.601562 78.699219 80 C 78.398438 80.5 78 80.800781 77.601562 81.101562 C 77.101562 81.398438 76.601562 81.5 76 81.5 C 75.398438 81.5 75 81.398438 74.5 81.101562 C 74.101562 80.800781 73.699219 80.5 73.5 80 C 73.300781 79.5 73.101562 79 73.101562 78.5 L 71.699219 78.5 L 71.699219 80.601562 C 71.699219 80.800781 71.699219 80.898438 71.800781 81 C 71.800781 81.101562 71.898438 81.101562 72 81.199219 C 72.101562 81.199219 72.300781 81.199219 72.5 81.199219 C 72.5 81.199219 72.5 81.199219 72.5 81.300781 C 72.5 81.300781 72.5 81.398438 72.5 81.398438 C 72.300781 81.398438 72.101562 81.398438 72 81.398438 L 70.699219 81.398438 C 70.601562 81.398438 70.398438 81.398438 70.199219 81.398438 C 70.199219 81.398438 70.199219 81.398438 70.199219 81.300781 C 70.199219 81.300781 70.199219 81.199219 70.199219 81.199219 C 70.398438 81.199219 70.601562 81.199219 70.699219 81.199219 C 70.800781 81.199219 70.898438 81.101562 70.898438 81 C 70.898438 80.898438 71 80.800781 71 80.601562 L 71 76.300781 C 71 76.101562 71 76 70.898438 75.898438 C 70.898438 75.800781 70.800781 75.800781 70.699219 75.699219 C 70.601562 75.699219 70.398438 75.601562 70.199219 75.601562 C 70.199219 75.601562 70.199219 75.601562 70.199219 75.5 C 70.199219 75.5 70.199219 75.398438 70.199219 75.398438 L 70.699219 75.398438 C 71 75.398438 71.199219 75.398438 71.300781 75.398438 C 71.5 75.398438 71.699219 75.398438 72 75.398438 L 72.5 75.398438 C 72.5 75.398438 72.5 75.398438 72.5 75.5 C 72.5 75.5 72.5 75.601562 72.5 75.601562 C 72.300781 75.601562 72.101562 75.601562 72 75.699219 C 71.898438 75.699219 71.800781 75.800781 71.800781 75.898438 C 71.800781 76 71.699219 76.101562 71.699219 76.300781 L 71.699219 78.199219 L 73.101562 78.199219 C 73.101562 77.601562 73.300781 77.101562 73.601562 76.699219 C 73.898438 76.300781 74.300781 76 74.800781 75.800781 C 75.300781 75.601562 75.699219 75.5 76.199219 75.5 C 76.898438 75.601562 77.398438 75.699219 77.800781 76 Z M 77.300781 81 C 77.601562 80.800781 77.800781 80.5 78 80.101562 C 78.199219 79.699219 78.300781 79.199219 78.300781 78.699219 C 78.300781 78.101562 78.199219 77.601562 78 77.199219 C 77.800781 76.800781 77.5 76.398438 77.199219 76.101562 C 76.800781 75.800781 76.398438 75.699219 75.898438 75.699219 C 75.300781 75.699219 74.800781 75.898438 74.398438 76.398438 C 74.101562 76.800781 73.898438 77.398438 73.898438 78.199219 C 73.898438 78.800781 74 79.300781 74.199219 79.800781 C 74.398438 80.300781 74.699219 80.601562 75 80.898438 C 75.398438 81.199219 75.800781 81.300781 76.199219 81.300781 C 76.699219 81.398438 77 81.300781 77.300781 81 Z M 77.300781 81 "/>
<path style=" stroke:none;fill-rule:nonzero;fill:url(#linear1);" d="M 87.101562 78.699219 C 87.398438 79 87.5 79.300781 87.5 79.800781 C 87.5 80.101562 87.398438 80.398438 87.300781 80.699219 C 87.101562 81 86.898438 81.199219 86.601562 81.300781 C 86.300781 81.5 86 81.5 85.601562 81.5 C 85.398438 81.5 85.199219 81.5 85 81.5 C 84.898438 81.5 84.800781 81.5 84.699219 81.5 C 84.601562 81.5 84.5 81.5 84.300781 81.5 L 83.699219 81.5 C 83.601562 81.5 83.398438 81.5 83.199219 81.5 C 83.199219 81.5 83.199219 81.5 83.199219 81.398438 C 83.199219 81.398438 83.199219 81.300781 83.199219 81.300781 C 83.398438 81.300781 83.601562 81.300781 83.699219 81.199219 C 83.800781 81.199219 83.898438 81.101562 83.898438 81 C 83.898438 80.898438 84 80.800781 84 80.601562 L 84 76.300781 C 84 76.101562 84 76 83.898438 75.898438 C 83.898438 75.800781 83.800781 75.800781 83.699219 75.699219 C 83.601562 75.699219 83.398438 75.601562 83.199219 75.601562 C 83.199219 75.601562 83.199219 75.601562 83.199219 75.5 C 83.199219 75.5 83.199219 75.398438 83.199219 75.398438 L 83.699219 75.398438 C 84 75.398438 84.199219 75.398438 84.300781 75.398438 C 84.398438 75.398438 84.5 75.398438 84.601562 75.398438 C 84.699219 75.398438 84.800781 75.398438 84.800781 75.398438 C 85 75.398438 85.199219 75.398438 85.300781 75.398438 C 85.800781 75.398438 86.199219 75.5 86.5 75.699219 C 86.800781 75.898438 86.898438 76.199219 86.898438 76.601562 C 86.898438 76.898438 86.800781 77.199219 86.601562 77.398438 C 86.398438 77.601562 86.101562 77.800781 85.800781 77.898438 C 86.398438 78.199219 86.800781 78.398438 87.101562 78.699219 Z M 84.898438 75.800781 C 84.800781 75.800781 84.800781 75.898438 84.699219 76 C 84.699219 76.101562 84.601562 76.199219 84.601562 76.398438 L 84.601562 78.199219 L 85 78.199219 C 85.398438 78.199219 85.699219 78.101562 85.898438 77.800781 C 86.101562 77.601562 86.199219 77.300781 86.199219 76.898438 C 86.199219 76.601562 86.101562 76.300781 85.898438 76.101562 C 85.699219 75.898438 85.398438 75.800781 85.101562 75.800781 C 85.101562 75.800781 84.898438 75.800781 84.898438 75.800781 Z M 86.5 81 C 86.699219 80.800781 86.800781 80.398438 86.800781 80 C 86.800781 79.5 86.699219 79.199219 86.398438 78.898438 C 86.101562 78.601562 85.800781 78.5 85.300781 78.5 C 85.101562 78.5 84.898438 78.5 84.601562 78.5 L 84.601562 80.800781 C 84.601562 81 84.601562 81.101562 84.699219 81.199219 C 84.699219 81.300781 84.800781 81.300781 85 81.398438 C 85.101562 81.398438 85.300781 81.5 85.5 81.5 C 86 81.300781 86.300781 81.199219 86.5 81 Z M 86.5 81 "/>
<path style=" stroke:none;fill-rule:nonzero;fill:url(#linear2);" d="M 95.699219 80 C 95.699219 80 95.800781 80.101562 95.699219 80 C 95.699219 80.398438 95.699219 80.800781 95.699219 81.300781 C 95.699219 81.300781 95.699219 81.398438 95.699219 81.398438 C 95.699219 81.398438 95.601562 81.398438 95.601562 81.398438 L 91.699219 81.398438 C 91.699219 81.398438 91.699219 81.398438 91.699219 81.300781 C 91.699219 81.300781 91.699219 81.199219 91.699219 81.199219 C 91.898438 81.199219 92.101562 81.199219 92.199219 81.199219 C 92.300781 81.199219 92.398438 81.101562 92.398438 81 C 92.398438 80.898438 92.5 80.800781 92.5 80.601562 L 92.5 76.300781 C 92.5 76.101562 92.5 76 92.398438 75.898438 C 92.398438 75.800781 92.300781 75.800781 92.199219 75.699219 C 92.101562 75.699219 91.898438 75.601562 91.699219 75.601562 C 91.699219 75.601562 91.699219 75.601562 91.699219 75.5 C 91.699219 75.5 91.699219 75.398438 91.699219 75.398438 L 95.398438 75.398438 C 95.5 75.398438 95.5 75.398438 95.5 75.5 L 95.5 76.699219 C 95.5 76.699219 95.5 76.699219 95.398438 76.699219 C 95.300781 76.699219 95.300781 76.699219 95.300781 76.699219 C 95.300781 76.398438 95.101562 76.101562 95 75.898438 C 94.800781 75.699219 94.601562 75.601562 94.300781 75.601562 L 93.800781 75.601562 C 93.5 75.601562 93.300781 75.601562 93.199219 75.699219 C 93.101562 75.800781 93.101562 75.898438 93.101562 76.199219 L 93.101562 78.101562 L 94.199219 78.101562 C 94.5 78.101562 94.699219 78 94.898438 77.898438 C 95 77.800781 95.101562 77.601562 95.101562 77.398438 C 95.101562 77.398438 95.101562 77.398438 95.199219 77.398438 C 95.199219 77.398438 95.300781 77.398438 95.300781 77.398438 L 95.300781 78.199219 C 95.300781 78.398438 95.300781 78.5 95.300781 78.601562 L 95.300781 79.101562 C 95.300781 79.101562 95.300781 79.101562 95.199219 79.101562 C 95.199219 79.101562 95.101562 79.101562 95.101562 79.101562 C 95.101562 78.800781 95 78.601562 94.898438 78.5 C 94.800781 78.398438 94.5 78.300781 94.199219 78.300781 L 93.199219 78.300781 L 93.199219 80.398438 C 93.199219 80.601562 93.199219 80.699219 93.300781 80.800781 C 93.300781 80.898438 93.398438 80.898438 93.5 81 C 93.601562 81 93.699219 81.101562 93.898438 81.101562 L 94.601562 81.101562 C 94.898438 81.101562 95.199219 81 95.398438 80.800781 C 95.398438 80.699219 95.601562 80.398438 95.699219 80 Z M 95.699219 80 "/>
<path style=" stroke:none;fill-rule:nonzero;fill:url(#linear3);" d="M 106 81.398438 C 106 81.398438 105.898438 81.398438 106 81.398438 C 105.800781 81.5 105.699219 81.398438 105.398438 81.398438 C 105.199219 81.398438 105 81.398438 104.898438 81.398438 C 104.800781 81.398438 104.601562 81.398438 104.398438 81.398438 C 104.199219 81.398438 104 81.398438 103.898438 81.398438 C 103.898438 81.398438 103.898438 81.398438 103.898438 81.300781 C 103.898438 81.300781 103.898438 81.199219 103.898438 81.199219 C 104.101562 81.199219 104.300781 81.199219 104.398438 81.101562 C 104.5 81.101562 104.5 81 104.5 80.898438 C 104.5 80.800781 104.5 80.699219 104.398438 80.5 L 102.398438 76.398438 L 100.800781 80.101562 C 100.699219 80.300781 100.699219 80.5 100.699219 80.601562 C 100.699219 81 101 81.199219 101.601562 81.199219 C 101.601562 81.199219 101.601562 81.199219 101.601562 81.300781 C 101.601562 81.300781 101.601562 81.398438 101.601562 81.398438 C 101.5 81.398438 101.300781 81.398438 101.101562 81.398438 C 100.898438 81.398438 100.699219 81.398438 100.5 81.398438 C 100.300781 81.398438 100.199219 81.398438 99.898438 81.398438 C 99.699219 81.398438 99.601562 81.398438 99.398438 81.398438 C 99.398438 81.398438 99.398438 81.398438 99.398438 81.300781 C 99.398438 81.300781 99.398438 81.199219 99.398438 81.199219 C 99.601562 81.199219 99.699219 81.199219 99.800781 81.101562 C 99.898438 81 100 80.898438 100.101562 80.800781 C 100.199219 80.601562 100.300781 80.398438 100.5 80.101562 L 102.398438 75.5 C 102.398438 75.5 102.398438 75.5 102.5 75.5 C 102.5 75.5 102.601562 75.5 102.601562 75.5 L 104.800781 80.101562 C 105 80.5 105.199219 80.898438 105.300781 81 C 105.601562 81.300781 105.699219 81.300781 106 81.398438 C 105.898438 81.300781 106 81.398438 106 81.398438 Z M 106 81.398438 "/>
<path style=" stroke:none;fill-rule:nonzero;fill:url(#linear4);" d="M 115.898438 81.398438 C 115.699219 81.5 115.5 81.5 115.398438 81.398438 L 114 81.398438 C 113.898438 81.398438 113.699219 81.398438 113.601562 81.398438 C 113.601562 81.398438 113.601562 81.398438 113.601562 81.300781 C 113.601562 81.300781 113.601562 81.199219 113.601562 81.199219 C 113.800781 81.199219 114 81.199219 114.101562 81.199219 C 114.199219 81.199219 114.300781 81.101562 114.300781 81 C 114.300781 80.898438 114.398438 80.800781 114.398438 80.601562 L 114.398438 76.398438 L 110.5 81.398438 C 110.5 81.398438 110.398438 81.398438 110.398438 81.398438 C 110.398438 81.398438 110.300781 81.398438 110.300781 81.398438 L 110.300781 76.300781 C 110.300781 76.101562 110.300781 76 110.199219 75.898438 C 110.199219 75.800781 110.101562 75.800781 110 75.699219 C 109.898438 75.699219 109.699219 75.601562 109.5 75.601562 C 109.5 75.601562 109.5 75.601562 109.5 75.5 C 109.5 75.5 109.5 75.398438 109.5 75.398438 L 110 75.398438 C 110.300781 75.398438 110.5 75.398438 110.601562 75.398438 C 110.800781 75.398438 111 75.398438 111.300781 75.398438 L 111.699219 75.398438 C 111.699219 75.398438 111.699219 75.398438 111.699219 75.5 C 111.699219 75.5 111.699219 75.601562 111.699219 75.601562 C 111.5 75.601562 111.300781 75.601562 111.199219 75.699219 C 111.101562 75.699219 111 75.800781 111 75.898438 C 111 76 110.898438 76.101562 110.898438 76.300781 L 110.898438 80.5 L 114.800781 75.5 C 114.800781 75.5 114.898438 75.5 114.898438 75.5 C 114.898438 75.5 115 75.5 115 75.5 L 115 80.5 C 115 80.699219 115 80.800781 115.101562 80.898438 C 115.101562 81 115.199219 81 115.300781 81.101562 C 115.398438 81.199219 115.699219 81.300781 115.898438 81.398438 C 115.898438 81.300781 115.898438 81.398438 115.898438 81.398438 Z M 115.898438 81.398438 "/>
<path style=" stroke:none;fill-rule:nonzero;fill:url(#linear5);" d="M 121.398438 81.101562 C 121.398438 81.199219 121.5 81.300781 121.699219 81.300781 C 121.800781 81.300781 122.101562 81.398438 122.398438 81.398438 C 122.398438 81.398438 122.398438 81.398438 122.398438 81.5 C 122.398438 81.5 122.398438 81.601562 122.398438 81.601562 C 122.101562 81.601562 122 81.601562 121.800781 81.601562 L 120.398438 81.601562 C 120.300781 81.601562 120.101562 81.601562 119.898438 81.601562 C 119.898438 81.601562 119.898438 81.601562 119.898438 81.5 C 119.898438 81.5 119.898438 81.398438 119.898438 81.398438 C 120.101562 81.398438 120.300781 81.398438 120.398438 81.398438 C 120.5 81.398438 120.601562 81.300781 120.601562 81.199219 C 120.601562 81.101562 120.699219 81 120.699219 80.800781 L 120.699219 76.5 C 120.699219 76.300781 120.699219 76.199219 120.601562 76.101562 C 120.601562 76 120.5 76 120.398438 75.898438 C 120.300781 75.898438 120.101562 75.800781 119.898438 75.800781 C 119.898438 75.800781 119.898438 75.800781 119.898438 75.699219 C 119.898438 75.699219 119.898438 75.601562 119.898438 75.601562 L 120.398438 75.601562 C 120.699219 75.601562 120.898438 75.601562 121 75.601562 C 121.101562 75.601562 121.300781 75.601562 121.5 75.601562 C 121.601562 75.601562 121.699219 75.601562 121.800781 75.601562 C 122 75.601562 122.101562 75.601562 122.199219 75.601562 C 122.800781 75.601562 123.199219 75.699219 123.601562 76 C 123.898438 76.300781 124.101562 76.601562 124.101562 77.199219 C 124.101562 77.601562 124 77.898438 123.800781 78.199219 C 123.601562 78.5 123.300781 78.699219 123 78.800781 C 122.699219 78.898438 122.398438 79 122 79 C 121.800781 79 121.699219 79 121.5 79 C 121.5 79 121.5 79 121.5 78.898438 C 121.601562 78.898438 121.699219 78.898438 121.800781 78.898438 C 122.199219 78.898438 122.5 78.800781 122.800781 78.5 C 123.101562 78.199219 123.199219 77.898438 123.199219 77.398438 C 123.199219 76.898438 123.101562 76.5 122.800781 76.300781 C 122.5 76 122.199219 75.898438 121.800781 75.898438 C 121.601562 75.898438 121.398438 75.898438 121.398438 75.898438 C 121.300781 75.898438 121.199219 76 121.199219 76.101562 C 121.199219 76.199219 121.101562 76.300781 121.101562 76.5 L 121.101562 80.699219 C 121.300781 80.898438 121.300781 81 121.398438 81.101562 Z M 121.398438 81.101562 "/>
<path style=" stroke:none;fill-rule:nonzero;fill:url(#linear6);" d="M 134.398438 81.398438 C 134.199219 81.5 134 81.5 133.898438 81.398438 L 132.5 81.398438 C 132.398438 81.398438 132.300781 81.398438 132.101562 81.398438 C 132.101562 81.398438 132.101562 81.398438 132.101562 81.300781 C 132.101562 81.300781 132.101562 81.199219 132.101562 81.199219 C 132.300781 81.199219 132.5 81.199219 132.601562 81.199219 C 132.699219 81.199219 132.800781 81.101562 132.800781 81 C 132.800781 80.898438 132.898438 80.800781 132.898438 80.601562 L 132.898438 78.5 L 129.5 78.5 L 129.5 80.601562 C 129.5 80.800781 129.5 80.898438 129.601562 81 C 129.601562 81.101562 129.699219 81.101562 129.800781 81.199219 C 129.898438 81.199219 130.101562 81.199219 130.300781 81.199219 C 130.300781 81.199219 130.300781 81.199219 130.300781 81.300781 C 130.300781 81.300781 130.300781 81.398438 130.300781 81.398438 C 130.101562 81.398438 129.898438 81.398438 129.800781 81.398438 L 128.5 81.398438 C 128.398438 81.398438 128.199219 81.398438 128 81.398438 C 128 81.398438 128 81.398438 128 81.300781 C 128 81.300781 128 81.199219 128 81.199219 C 128.199219 81.199219 128.398438 81.199219 128.5 81.199219 C 128.601562 81.199219 128.699219 81.101562 128.699219 81 C 128.699219 80.898438 128.800781 80.800781 128.800781 80.601562 L 128.800781 76.300781 C 128.800781 76.101562 128.800781 76 128.699219 75.898438 C 128.699219 75.800781 128.601562 75.800781 128.5 75.699219 C 128.398438 75.699219 128.199219 75.601562 128 75.601562 C 128 75.601562 128 75.601562 128 75.5 C 128 75.5 128 75.398438 128 75.398438 L 128.5 75.398438 C 128.800781 75.398438 129 75.398438 129.101562 75.398438 C 129.300781 75.398438 129.5 75.398438 129.800781 75.398438 L 130.300781 75.398438 C 130.300781 75.398438 130.300781 75.398438 130.300781 75.5 C 130.300781 75.5 130.300781 75.601562 130.300781 75.601562 C 130.101562 75.601562 129.898438 75.601562 129.800781 75.699219 C 129.699219 75.699219 129.601562 75.800781 129.601562 75.898438 C 129.601562 76 129.5 76.101562 129.5 76.300781 L 129.5 78.199219 L 132.898438 78.199219 L 132.898438 76.300781 C 132.898438 76.101562 132.898438 76 132.800781 75.898438 C 132.800781 75.800781 132.699219 75.699219 132.601562 75.699219 C 132.5 75.699219 132.300781 75.601562 132.101562 75.601562 C 132.101562 75.601562 132.101562 75.601562 132.101562 75.5 C 132.101562 75.5 132.101562 75.398438 132.101562 75.398438 L 132.5 75.398438 C 132.800781 75.398438 133 75.398438 133.199219 75.398438 C 133.398438 75.398438 133.601562 75.398438 133.898438 75.398438 L 134.398438 75.398438 C 134.398438 75.398438 134.398438 75.398438 134.398438 75.5 C 134.398438 75.5 134.398438 75.601562 134.398438 75.601562 C 134.199219 75.601562 134 75.601562 133.898438 75.699219 C 133.800781 75.699219 133.699219 75.800781 133.699219 75.898438 C 133.699219 76 133.601562 76.101562 133.601562 76.300781 L 133.601562 80.601562 C 133.601562 80.800781 133.601562 80.898438 133.699219 81 C 133.699219 81.101562 133.800781 81.101562 133.898438 81.199219 C 134 81.300781 134.199219 81.300781 134.398438 81.398438 C 134.398438 81.300781 134.398438 81.398438 134.398438 81.398438 Z M 134.398438 81.398438 "/>
<path style=" stroke:none;fill-rule:nonzero;fill:url(#linear7);" d="M 142.699219 79.699219 C 142.699219 80.101562 142.601562 80.398438 142.5 80.601562 C 142.300781 80.898438 142.101562 81.101562 141.800781 81.199219 C 141.5 81.300781 141.199219 81.398438 140.800781 81.398438 C 140.601562 81.398438 140.398438 81.398438 140.199219 81.398438 C 140.101562 81.398438 140 81.398438 139.898438 81.398438 C 139.800781 81.398438 139.601562 81.398438 139.398438 81.398438 L 138.800781 81.398438 C 138.699219 81.398438 138.5 81.398438 138.300781 81.398438 C 138.300781 81.398438 138.300781 81.398438 138.300781 81.300781 C 138.300781 81.300781 138.300781 81.199219 138.300781 81.199219 C 138.5 81.199219 138.699219 81.199219 138.800781 81.101562 C 138.898438 81.101562 139 81 139 80.898438 C 139 80.800781 139.101562 80.699219 139.101562 80.5 L 139.101562 76.199219 C 139.101562 76 139.101562 75.898438 139 75.800781 C 139 75.699219 138.898438 75.699219 138.800781 75.601562 C 138.699219 75.601562 138.5 75.601562 138.300781 75.5 C 138.300781 75.5 138.300781 75.5 138.300781 75.398438 C 138.300781 75.398438 138.300781 75.300781 138.300781 75.300781 L 138.699219 75.300781 C 139 75.300781 139.199219 75.300781 139.300781 75.300781 C 139.5 75.300781 139.699219 75.300781 140 75.300781 L 140.5 75.300781 C 140.5 75.300781 140.5 75.300781 140.5 75.398438 C 140.5 75.398438 140.5 75.5 140.5 75.5 C 140.300781 75.5 140.101562 75.5 140 75.601562 C 139.898438 75.699219 139.800781 75.699219 139.800781 75.800781 C 139.800781 75.898438 139.699219 76 139.699219 76.199219 L 139.699219 78 C 140.101562 77.898438 140.398438 77.898438 140.699219 77.898438 C 142.101562 78.199219 142.699219 78.699219 142.699219 79.699219 Z M 141.699219 81 C 141.898438 80.800781 142 80.398438 142 79.898438 C 142 79.398438 141.898438 79 141.601562 78.699219 C 141.398438 78.5 141 78.300781 140.601562 78.300781 C 140.398438 78.300781 140.101562 78.300781 139.800781 78.398438 L 139.800781 80.601562 C 139.800781 80.800781 139.898438 81 140 81.101562 C 140.101562 81.199219 140.300781 81.199219 140.699219 81.199219 C 141.101562 81.300781 141.398438 81.199219 141.699219 81 Z M 145.398438 81.398438 C 145.199219 81.5 145 81.5 144.898438 81.398438 L 143.601562 81.398438 C 143.5 81.398438 143.300781 81.398438 143.101562 81.398438 C 143.101562 81.398438 143.101562 81.398438 143.101562 81.300781 C 143.101562 81.300781 143.101562 81.199219 143.101562 81.199219 C 143.300781 81.199219 143.5 81.199219 143.601562 81.199219 C 143.699219 81.199219 143.800781 81.101562 143.800781 81 C 143.800781 80.898438 143.898438 80.800781 143.898438 80.601562 L 143.898438 76.300781 C 143.898438 76.101562 143.898438 76 143.800781 75.898438 C 143.800781 75.800781 143.699219 75.800781 143.601562 75.699219 C 143.5 75.699219 143.300781 75.601562 143.101562 75.601562 C 143.101562 75.601562 143.101562 75.601562 143.101562 75.5 C 143.101562 75.5 143.101562 75.398438 143.101562 75.398438 L 143.601562 75.398438 C 143.898438 75.398438 144.101562 75.398438 144.199219 75.398438 C 144.398438 75.398438 144.601562 75.398438 144.898438 75.398438 L 145.300781 75.398438 C 145.300781 75.398438 145.300781 75.398438 145.300781 75.5 C 145.300781 75.5 145.300781 75.601562 145.300781 75.601562 C 145.101562 75.601562 144.898438 75.601562 144.800781 75.699219 C 144.699219 75.699219 144.601562 75.800781 144.601562 75.898438 C 144.601562 76 144.5 76.101562 144.5 76.300781 L 144.5 80.601562 C 144.5 80.800781 144.5 80.898438 144.601562 81 C 144.601562 81.101562 144.699219 81.101562 144.800781 81.199219 C 145 81.300781 145.199219 81.300781 145.398438 81.398438 C 145.398438 81.300781 145.398438 81.398438 145.398438 81.398438 Z M 145.398438 81.398438 "/>
<path style=" stroke:none;fill-rule:nonzero;fill:url(#linear8);" d="M 153.601562 80 C 153.601562 80 153.601562 80.101562 153.601562 80 C 153.601562 80.398438 153.601562 80.800781 153.601562 81.300781 C 153.601562 81.300781 153.601562 81.398438 153.601562 81.398438 C 153.601562 81.398438 153.5 81.398438 153.5 81.398438 L 149.601562 81.398438 C 149.601562 81.398438 149.601562 81.398438 149.601562 81.300781 C 149.601562 81.300781 149.601562 81.199219 149.601562 81.199219 C 149.800781 81.199219 150 81.199219 150.101562 81.199219 C 150.199219 81.199219 150.300781 81.101562 150.300781 81 C 150.300781 80.898438 150.398438 80.800781 150.398438 80.601562 L 150.398438 76.300781 C 150.398438 76.101562 150.398438 76 150.300781 75.898438 C 150.300781 75.800781 150.199219 75.800781 150.101562 75.699219 C 150 75.699219 149.800781 75.601562 149.601562 75.601562 C 149.601562 75.601562 149.601562 75.601562 149.601562 75.5 C 149.601562 75.5 149.601562 75.398438 149.601562 75.398438 L 153.300781 75.398438 C 153.398438 75.398438 153.398438 75.398438 153.398438 75.5 L 153.398438 76.699219 C 153.398438 76.699219 153.398438 76.699219 153.300781 76.699219 C 153.300781 76.699219 153.199219 76.699219 153.199219 76.699219 C 153.199219 76.398438 153 76.101562 152.898438 75.898438 C 152.699219 75.699219 152.5 75.601562 152.199219 75.601562 L 151.699219 75.601562 C 151.398438 75.601562 151.199219 75.601562 151.101562 75.699219 C 151 75.800781 151 75.898438 151 76.199219 L 151 78.101562 L 152.101562 78.101562 C 152.398438 78.101562 152.601562 78 152.800781 77.898438 C 152.898438 77.800781 153 77.601562 153 77.398438 C 153 77.398438 153 77.398438 153.101562 77.398438 C 153.101562 77.398438 153.199219 77.398438 153.199219 77.398438 L 153.199219 78.199219 C 153.199219 78.398438 153.199219 78.5 153.199219 78.601562 L 153.199219 79.101562 C 153.199219 79.101562 153.199219 79.101562 153.101562 79.101562 C 153 79.101562 153 79.101562 153 79.101562 C 153 78.800781 152.898438 78.601562 152.800781 78.5 C 152.699219 78.398438 152.398438 78.300781 152.101562 78.300781 L 151.101562 78.300781 L 151.101562 80.398438 C 151.101562 80.601562 151.101562 80.699219 151.199219 80.800781 C 151.199219 80.898438 151.300781 80.898438 151.398438 81 C 151.5 81 151.601562 81.101562 151.800781 81.101562 L 152.5 81.101562 C 152.800781 81.101562 153.101562 81 153.300781 80.800781 C 153.300781 80.699219 153.398438 80.398438 153.601562 80 C 153.5 80 153.5 80 153.601562 80 Z M 153.601562 80 "/>
<path style=" stroke:none;fill-rule:nonzero;fill:url(#linear9);" d="M 171.800781 81.398438 C 171.800781 81.398438 171.699219 81.398438 171.800781 81.398438 C 171.601562 81.5 171.398438 81.5 171.300781 81.398438 L 169.898438 81.398438 C 169.800781 81.398438 169.601562 81.398438 169.5 81.398438 C 169.5 81.398438 169.5 81.398438 169.5 81.300781 C 169.5 81.300781 169.5 81.199219 169.5 81.199219 C 169.699219 81.199219 169.898438 81.199219 170 81.199219 C 170.101562 81.199219 170.199219 81.101562 170.199219 81 C 170.199219 80.898438 170.300781 80.800781 170.300781 80.601562 L 170.300781 76.398438 L 166.398438 81.398438 C 166.398438 81.398438 166.300781 81.398438 166.300781 81.398438 C 166.300781 81.398438 166.199219 81.398438 166.199219 81.398438 L 166.199219 76.300781 C 166.199219 76.101562 166.199219 76 166.101562 75.898438 C 166.101562 75.800781 166 75.800781 165.898438 75.699219 C 165.800781 75.699219 165.601562 75.601562 165.398438 75.601562 C 165.398438 75.601562 165.398438 75.601562 165.398438 75.5 C 165.398438 75.5 165.398438 75.398438 165.398438 75.398438 L 165.898438 75.398438 C 166.199219 75.398438 166.398438 75.398438 166.5 75.398438 C 166.699219 75.398438 166.898438 75.398438 167.199219 75.398438 L 167.601562 75.398438 C 167.601562 75.398438 167.601562 75.398438 167.601562 75.5 C 167.601562 75.5 167.601562 75.601562 167.601562 75.601562 C 167.398438 75.601562 167.199219 75.601562 167.101562 75.699219 C 167 75.699219 166.898438 75.800781 166.898438 75.898438 C 166.898438 76 166.800781 76.101562 166.800781 76.300781 L 166.800781 80.5 L 170.699219 75.5 C 170.699219 75.5 170.800781 75.5 170.800781 75.5 C 170.800781 75.5 170.898438 75.5 170.898438 75.5 L 170.898438 80.5 C 170.898438 80.699219 170.898438 80.800781 171 80.898438 C 171 81 171.101562 81 171.199219 81.101562 C 171.300781 81.199219 171.5 81.300781 171.800781 81.398438 C 171.699219 81.300781 171.800781 81.398438 171.800781 81.398438 Z M 171.800781 81.398438 "/>
<path style=" stroke:none;fill-rule:nonzero;fill:url(#linear10);" d="M 179.101562 78.800781 C 179.398438 79.101562 179.5 79.398438 179.5 79.800781 C 179.5 80.101562 179.398438 80.398438 179.199219 80.699219 C 179 81 178.699219 81.199219 178.398438 81.300781 C 178.101562 81.5 177.699219 81.5 177.300781 81.5 C 177 81.5 176.800781 81.5 176.5 81.398438 C 176.300781 81.300781 176.101562 81.300781 175.898438 81.101562 C 175.800781 81.101562 175.800781 81 175.800781 81 C 175.800781 81 175.800781 80.898438 175.800781 80.898438 L 175.699219 79.800781 C 175.699219 79.800781 175.699219 79.800781 175.800781 79.800781 C 175.800781 79.800781 175.898438 79.800781 175.898438 79.800781 C 176 80.101562 176.101562 80.398438 176.199219 80.601562 C 176.398438 80.800781 176.601562 81 176.800781 81.101562 C 177 81.199219 177.300781 81.300781 177.5 81.300781 C 177.898438 81.300781 178.199219 81.199219 178.398438 80.898438 C 178.601562 80.601562 178.699219 80.300781 178.699219 79.898438 C 178.699219 79.398438 178.601562 79 178.300781 78.800781 C 178 78.5 177.601562 78.398438 177.101562 78.398438 C 177.101562 78.398438 177.101562 78.398438 177.101562 78.300781 C 177.101562 78.300781 177.101562 78.199219 177.101562 78.199219 C 177.601562 78.199219 177.898438 78.101562 178.199219 77.800781 C 178.398438 77.601562 178.601562 77.199219 178.601562 76.800781 C 178.601562 76.398438 178.5 76.101562 178.300781 75.800781 C 178.101562 75.601562 177.800781 75.398438 177.5 75.398438 C 177.199219 75.398438 176.898438 75.5 176.601562 75.800781 C 176.300781 76 176.199219 76.398438 176 76.898438 L 176.101562 75.800781 C 176.101562 75.699219 176.101562 75.699219 176.101562 75.699219 C 176.101562 75.699219 176.101562 75.699219 176.199219 75.601562 C 176.699219 75.398438 177.101562 75.398438 177.601562 75.398438 C 178.101562 75.398438 178.5 75.5 178.800781 75.800781 C 179.101562 76 179.199219 76.300781 179.199219 76.699219 C 179.199219 77 179.101562 77.300781 178.800781 77.601562 C 178.5 77.898438 178.300781 78.101562 177.898438 78.199219 C 178.5 78.398438 178.800781 78.5 179.101562 78.800781 Z M 179.101562 78.800781 "/>
<path style=" stroke:none;fill-rule:nonzero;fill:url(#linear11);" d="M 189.5 81.199219 C 189.5 81.199219 189.5 81.300781 189.5 81.199219 C 189.5 81.300781 189.5 81.398438 189.5 81.5 C 189.5 81.800781 189.398438 82.300781 189.398438 82.800781 C 189.398438 82.800781 189.398438 82.800781 189.300781 82.800781 C 189.199219 82.800781 189.199219 82.800781 189.199219 82.800781 C 189.199219 82.300781 189.101562 81.898438 188.800781 81.699219 C 188.5 81.5 188.101562 81.398438 187.601562 81.398438 L 185 81.398438 C 184.101562 81.398438 183.601562 81.898438 183.601562 82.800781 C 183.601562 82.800781 183.601562 82.800781 183.5 82.800781 C 183.5 82.800781 183.398438 82.800781 183.398438 82.800781 C 183.398438 82.300781 183.398438 81.898438 183.300781 81.601562 C 183.300781 81.5 183.300781 81.398438 183.300781 81.300781 C 183.300781 81.300781 183.300781 81.199219 183.300781 81.199219 C 183.300781 81.199219 183.300781 81.199219 183.398438 81.199219 L 184 81.199219 L 186.300781 75.601562 C 186.300781 75.601562 186.300781 75.601562 186.398438 75.601562 C 186.5 75.601562 186.5 75.601562 186.5 75.601562 L 188.898438 81.199219 Z M 184.398438 81.199219 L 188.199219 81.199219 L 186.300781 76.601562 Z M 184.398438 81.199219 "/>
<path style=" stroke:none;fill-rule:nonzero;fill:url(#linear12);" d="M 197.5 80 C 197.5 80 197.5 80.101562 197.5 80 C 197.5 80.398438 197.5 80.800781 197.5 81.300781 C 197.5 81.300781 197.5 81.398438 197.5 81.398438 C 197.5 81.398438 197.398438 81.398438 197.398438 81.398438 L 193.5 81.398438 C 193.5 81.398438 193.5 81.398438 193.5 81.300781 C 193.5 81.300781 193.5 81.199219 193.5 81.199219 C 193.699219 81.199219 193.898438 81.199219 194 81.199219 C 194.101562 81.199219 194.199219 81.101562 194.199219 81 C 194.199219 80.898438 194.300781 80.800781 194.300781 80.601562 L 194.300781 76.300781 C 194.300781 76.101562 194.300781 76 194.199219 75.898438 C 194.199219 75.800781 194.101562 75.800781 194 75.699219 C 193.898438 75.699219 193.699219 75.601562 193.5 75.601562 C 193.5 75.601562 193.5 75.601562 193.5 75.5 C 193.5 75.5 193.5 75.398438 193.5 75.398438 L 197.199219 75.398438 C 197.300781 75.398438 197.300781 75.398438 197.300781 75.5 L 197.300781 76.699219 C 197.300781 76.699219 197.300781 76.699219 197.199219 76.699219 C 197.199219 76.699219 197.101562 76.699219 197.101562 76.699219 C 197.101562 76.398438 196.898438 76.101562 196.800781 75.898438 C 196.601562 75.699219 196.398438 75.601562 196.101562 75.601562 L 195.601562 75.601562 C 195.300781 75.601562 195.101562 75.601562 195 75.699219 C 194.898438 75.800781 194.898438 75.898438 194.898438 76.199219 L 194.898438 78.101562 L 196 78.101562 C 196.300781 78.101562 196.5 78 196.699219 77.898438 C 196.800781 77.800781 196.898438 77.601562 196.898438 77.398438 C 196.898438 77.398438 196.898438 77.398438 197 77.398438 C 197.101562 77.398438 197.101562 77.398438 197.101562 77.398438 L 197.101562 78.199219 C 197.101562 78.398438 197.101562 78.5 197.101562 78.601562 L 197.101562 79.101562 C 197.101562 79.101562 197.101562 79.101562 197 79.101562 C 197 79.101562 196.898438 79.101562 196.898438 79.101562 C 196.898438 78.800781 196.800781 78.601562 196.699219 78.5 C 196.601562 78.398438 196.300781 78.300781 196 78.300781 L 195 78.300781 L 195 80.398438 C 195 80.601562 195 80.699219 195.101562 80.800781 C 195.101562 80.898438 195.199219 80.898438 195.300781 81 C 195.398438 81 195.5 81.101562 195.699219 81.101562 L 196.398438 81.101562 C 196.699219 81.101562 197 81 197.199219 80.800781 C 197.199219 80.699219 197.300781 80.398438 197.5 80 C 197.398438 80 197.398438 80 197.5 80 Z M 197.5 80 "/>
<path style=" stroke:none;fill-rule:nonzero;fill:url(#linear13);" d="M 207.699219 81.398438 C 207.5 81.5 207.398438 81.398438 207.101562 81.398438 C 206.898438 81.398438 206.699219 81.398438 206.601562 81.398438 C 206.5 81.398438 206.300781 81.398438 206.101562 81.398438 C 205.898438 81.398438 205.699219 81.398438 205.601562 81.398438 C 205.601562 81.398438 205.601562 81.398438 205.601562 81.300781 C 205.601562 81.300781 205.601562 81.199219 205.601562 81.199219 C 205.800781 81.199219 206 81.199219 206.101562 81.101562 C 206.199219 81.101562 206.199219 81 206.199219 80.898438 C 206.199219 80.800781 206.199219 80.699219 206.101562 80.5 L 204.101562 76.398438 L 202.5 80.101562 C 202.398438 80.300781 202.398438 80.5 202.398438 80.601562 C 202.398438 81 202.699219 81.199219 203.300781 81.199219 C 203.300781 81.199219 203.300781 81.199219 203.300781 81.300781 C 203.300781 81.300781 203.300781 81.398438 203.300781 81.398438 C 203.199219 81.398438 203 81.398438 202.800781 81.398438 C 202.601562 81.398438 202.398438 81.398438 202.199219 81.398438 C 202 81.398438 201.898438 81.398438 201.601562 81.398438 C 201.398438 81.398438 201.300781 81.398438 201.101562 81.398438 C 201.101562 81.398438 201.101562 81.398438 201.101562 81.300781 C 201.101562 81.300781 201.101562 81.199219 201.101562 81.199219 C 201.300781 81.199219 201.398438 81.199219 201.5 81.101562 C 201.601562 81 201.699219 80.898438 201.800781 80.800781 C 201.898438 80.601562 202 80.398438 202.199219 80.101562 L 204.101562 75.5 C 204.101562 75.5 204.101562 75.5 204.199219 75.5 C 204.199219 75.5 204.300781 75.5 204.300781 75.5 L 206.5 80.101562 C 206.699219 80.5 206.898438 80.898438 207 81 C 207.300781 81.300781 207.5 81.300781 207.699219 81.398438 C 207.699219 81.300781 207.699219 81.398438 207.699219 81.398438 Z M 207.699219 81.398438 "/>
<path style=" stroke:none;fill-rule:nonzero;fill:url(#linear14);" d="M 217.699219 81.398438 C 217.5 81.5 217.300781 81.5 217.199219 81.398438 L 215.800781 81.398438 C 215.699219 81.398438 215.5 81.398438 215.398438 81.398438 C 215.398438 81.398438 215.398438 81.398438 215.398438 81.300781 C 215.398438 81.300781 215.398438 81.199219 215.398438 81.199219 C 215.601562 81.199219 215.800781 81.199219 215.898438 81.199219 C 216 81.199219 216.101562 81.101562 216.101562 81 C 216.101562 80.898438 216.199219 80.800781 216.199219 80.601562 L 216.199219 76.398438 L 212.300781 81.398438 C 212.300781 81.398438 212.199219 81.398438 212.199219 81.398438 C 212.199219 81.398438 212.101562 81.398438 212.101562 81.398438 L 212.101562 76.300781 C 212.101562 76.101562 212.101562 76 212 75.898438 C 212 75.800781 211.898438 75.800781 211.800781 75.699219 C 211.699219 75.699219 211.5 75.601562 211.300781 75.601562 C 211.300781 75.601562 211.300781 75.601562 211.300781 75.5 C 211.300781 75.5 211.300781 75.398438 211.300781 75.398438 L 211.800781 75.398438 C 212.101562 75.398438 212.300781 75.398438 212.398438 75.398438 C 212.601562 75.398438 212.800781 75.398438 213.101562 75.398438 L 213.5 75.398438 C 213.5 75.398438 213.5 75.398438 213.5 75.5 C 213.5 75.5 213.5 75.601562 213.5 75.601562 C 213.300781 75.601562 213.101562 75.601562 213 75.699219 C 212.898438 75.699219 212.800781 75.800781 212.800781 75.898438 C 212.800781 76 212.699219 76.101562 212.699219 76.300781 L 212.699219 80.5 L 216.601562 75.5 C 216.601562 75.5 216.699219 75.5 216.699219 75.5 C 216.699219 75.5 216.800781 75.5 216.800781 75.5 L 216.800781 80.5 C 216.800781 80.699219 216.800781 80.800781 216.898438 80.898438 C 216.898438 81 217 81 217.101562 81.101562 C 217.199219 81.199219 217.5 81.300781 217.699219 81.398438 C 217.699219 81.300781 217.699219 81.398438 217.699219 81.398438 Z M 217.699219 81.398438 "/>
<path style=" stroke:none;fill-rule:nonzero;fill:url(#linear15);" d="M 226.5 81.398438 C 226.300781 81.5 226.101562 81.5 226 81.398438 L 224.800781 81.398438 C 224.699219 81.398438 224.5 81.398438 224.300781 81.398438 C 224.300781 81.398438 224.300781 81.398438 224.300781 81.300781 C 224.300781 81.300781 224.300781 81.199219 224.300781 81.199219 C 224.5 81.199219 224.699219 81.199219 224.800781 81.199219 C 224.898438 81.199219 225 81.101562 225 81 C 225 80.898438 225.101562 80.800781 225.101562 80.601562 L 225.101562 78.398438 C 224.898438 78.398438 224.699219 78.5 224.601562 78.5 C 224.5 78.601562 224.300781 78.699219 224.101562 78.898438 C 223.898438 79.101562 223.699219 79.398438 223.5 79.800781 C 223.199219 80.300781 223 80.699219 222.800781 80.898438 C 222.601562 81.101562 222.5 81.199219 222.5 81.300781 C 222.398438 81.300781 222.398438 81.398438 222.300781 81.398438 L 221.300781 81.398438 C 221.300781 81.398438 221.300781 81.398438 221.300781 81.300781 C 221.300781 81.300781 221.300781 81.199219 221.300781 81.199219 C 221.5 81.199219 221.699219 81.101562 221.898438 81 C 222.101562 80.898438 222.199219 80.699219 222.398438 80.5 C 222.601562 80.300781 222.699219 80 223 79.601562 C 223.199219 79.199219 223.398438 78.898438 223.699219 78.699219 C 223.898438 78.5 224.199219 78.398438 224.398438 78.300781 C 223.898438 78.300781 223.398438 78.101562 223.199219 77.898438 C 222.898438 77.699219 222.800781 77.300781 222.800781 77 C 222.800781 76.699219 222.898438 76.5 223 76.300781 C 223.199219 76.101562 223.398438 75.898438 223.601562 75.800781 C 223.800781 75.699219 224.199219 75.601562 224.5 75.601562 C 224.601562 75.601562 224.800781 75.601562 225 75.601562 C 225.101562 75.601562 225.199219 75.601562 225.300781 75.601562 C 225.398438 75.601562 225.5 75.601562 225.601562 75.601562 C 225.800781 75.601562 226 75.601562 226.199219 75.601562 L 226.699219 75.601562 C 226.699219 75.601562 226.699219 75.601562 226.699219 75.699219 C 226.699219 75.699219 226.699219 75.800781 226.699219 75.800781 C 226.5 75.800781 226.300781 75.800781 226.199219 75.898438 C 226.101562 75.898438 226 76 226 76.101562 C 226 76.199219 225.898438 76.300781 225.898438 76.5 L 225.898438 80.800781 C 225.898438 81 225.898438 81.101562 226 81.199219 C 226 81.300781 226.101562 81.300781 226.199219 81.398438 C 226.300781 81.5 226.199219 81.300781 226.5 81.398438 C 226.5 81.300781 226.5 81.398438 226.5 81.398438 Z M 223.601562 77.898438 C 223.800781 78.199219 224.199219 78.300781 224.699219 78.300781 C 224.800781 78.300781 224.898438 78.300781 225 78.300781 L 225 76.398438 C 225 76.199219 224.898438 76 224.800781 75.898438 C 224.699219 75.800781 224.5 75.699219 224.300781 75.699219 C 223.601562 75.699219 223.300781 76.101562 223.300781 76.800781 C 223.199219 77.300781 223.398438 77.601562 223.601562 77.898438 Z M 223.601562 77.898438 "/>
<path style=" stroke:none;fill-rule:nonzero;fill:url(#linear16);" d="M 50.199219 49.898438 L 47 49.898438 C 42.199219 49.898438 37.699219 47.300781 35.601562 42.898438 C 35.5 42.699219 35.398438 42.601562 35.398438 42.398438 L 26.398438 22.898438 L 25.898438 21.800781 L 20.601562 10.398438 C 20.398438 10 19.800781 10 19.601562 10.398438 L 14.101562 22 L 13.699219 22.898438 L 1.199219 49.601562 C 1.101562 49.800781 0.898438 49.898438 0.699219 49.898438 C 0.300781 49.898438 0 49.5 0.199219 49.101562 L 12.5 22.898438 L 12.898438 22 L 22 2.699219 C 22.101562 2.5 22.300781 2.398438 22.5 2.398438 L 26.199219 2.398438 C 26.398438 2.398438 26.601562 2.5 26.699219 2.699219 L 35.300781 21.601562 L 36 23.101562 L 44.800781 42.398438 C 46.300781 45.5 47.699219 47.699219 49.101562 49 C 49.398438 49.300781 49.800781 49.601562 50.199219 49.898438 Z M 50.199219 49.898438 "/>
<path style=" stroke:none;fill-rule:nonzero;fill:url(#linear17);" d="M 96.699219 2.699219 L 79.101562 40.101562 C 78.898438 40.5 78.300781 40.5 78.101562 40.101562 C 78.101562 40.101562 60.898438 3.898438 59.800781 2.601562 C 59.699219 2.5 59.398438 2.398438 59.398438 2.398438 L 51.699219 2.398438 C 51.300781 2.398438 51 2.898438 51.300781 3.199219 C 52 4.300781 52.800781 5.699219 53.5 7.300781 L 73.199219 49.5 C 73.300781 49.699219 73.5 49.800781 73.699219 49.800781 L 75.300781 49.800781 C 75.5 49.800781 75.699219 49.699219 75.800781 49.5 L 97.800781 3.101562 C 98 2.699219 97.699219 2.300781 97.300781 2.300781 L 97.101562 2.300781 C 96.898438 2.398438 96.699219 2.601562 96.699219 2.699219 Z M 96.699219 2.699219 "/>
<path style=" stroke:none;fill-rule:nonzero;fill:url(#linear18);" d="M 154.699219 49.898438 L 151.5 49.898438 C 146.699219 49.898438 142.199219 47.300781 140.101562 42.898438 C 140 42.699219 139.898438 42.601562 139.898438 42.398438 L 125 10.300781 C 124.800781 9.898438 124.199219 9.898438 124 10.300781 L 105.601562 49.5 C 105.5 49.699219 105.300781 49.800781 105.101562 49.800781 C 104.699219 49.800781 104.398438 49.398438 104.601562 49 L 126.398438 2.601562 C 126.5 2.398438 126.699219 2.300781 126.898438 2.300781 L 130.601562 2.300781 C 130.800781 2.300781 131 2.398438 131.101562 2.601562 L 149.199219 42.300781 C 150.699219 45.398438 152.101562 47.601562 153.5 48.898438 C 153.800781 49.300781 154.199219 49.601562 154.699219 49.898438 Z M 154.699219 49.898438 "/>
<path style=" stroke:none;fill-rule:nonzero;fill:url(#linear19);" d="M 209.101562 3 L 209.101562 37.699219 C 209.101562 38.199219 208.5 38.398438 208.199219 38.101562 L 176.601562 2.699219 C 176.398438 2.601562 176.101562 2.5 175.898438 2.398438 L 169.199219 2.398438 C 168.800781 2.398438 168.601562 2.800781 168.699219 3.101562 C 169.199219 4.300781 169.5 5.800781 169.5 7.5 L 169.5 49.199219 C 169.5 49.5 169.699219 49.699219 170 49.699219 L 170.300781 49.699219 C 170.601562 49.699219 170.800781 49.5 170.800781 49.199219 L 170.800781 10.300781 C 170.800781 9.800781 171.398438 9.601562 171.699219 9.898438 L 204.601562 46.5 C 206.5 48.601562 209.300781 49.898438 212.101562 49.898438 C 212.398438 49.898438 212.601562 49.699219 212.601562 49.398438 L 212.601562 3 C 212.601562 2.699219 212.398438 2.5 212.101562 2.5 L 209.5 2.5 C 209.300781 2.398438 209.101562 2.699219 209.101562 3 Z M 209.101562 3 "/>
<path style=" stroke:none;fill-rule:nonzero;fill:url(#linear20);" d="M 273.101562 2.898438 L 273.101562 3 C 273.101562 3.300781 272.898438 3.5 272.601562 3.5 L 252.699219 3.5 C 252.398438 3.5 252.199219 3.699219 252.199219 4 L 252.199219 49.300781 C 252.199219 49.601562 252 49.800781 251.699219 49.800781 L 244.398438 49.800781 C 244.101562 49.800781 243.898438 49.601562 243.898438 49.300781 L 243.898438 4.101562 C 243.898438 3.800781 243.699219 3.601562 243.398438 3.601562 L 223.5 3.601562 C 223.199219 3.601562 223 3.398438 223 3.101562 L 223 2.898438 C 223 2.601562 223.199219 2.398438 223.5 2.398438 L 272.699219 2.398438 C 272.898438 2.300781 273.101562 2.601562 273.101562 2.898438 Z M 273.101562 2.898438 "/>
<path style=" stroke:none;fill-rule:nonzero;fill:url(#linear21);" d="M 298.101562 48.199219 C 295.300781 48.199219 293.5 47.398438 292.699219 45.898438 C 291.898438 44.398438 291.5 42.300781 291.5 39.800781 L 291.5 2.898438 C 291.5 2.601562 291.300781 2.398438 291 2.398438 L 283.699219 2.398438 C 283.398438 2.398438 283.199219 2.601562 283.199219 2.898438 L 283.199219 39.800781 C 283.199219 42.601562 283.398438 44.699219 283.898438 46.199219 C 284.398438 47.699219 285.300781 48.601562 286.5 49.101562 C 287.699219 49.601562 289.398438 49.898438 291.601562 49.898438 L 299.398438 49.898438 C 299.699219 49.898438 299.898438 49.699219 299.898438 49.398438 L 299.898438 48.800781 C 299.898438 48.5 299.699219 48.300781 299.398438 48.300781 L 298.101562 48.300781 Z M 298.101562 48.199219 "/>
<path style=" stroke:none;fill-rule:nonzero;fill:url(#linear22);" d="M 84 30.199219 C 78.398438 21.300781 73.5 12 69.5 2.5 L 70.5 2.101562 C 74.398438 11.601562 79.300781 20.800781 84.898438 29.601562 Z M 84 30.199219 "/>
<path style=" stroke:none;fill-rule:nonzero;fill:url(#linear23);" d="M 105.300781 50.199219 L 104.398438 49.5 C 113.101562 37.898438 123.300781 27.101562 134.601562 17.5 L 135.300781 18.300781 C 124.101562 27.898438 114 38.601562 105.300781 50.199219 Z M 105.300781 50.199219 "/>
<path style=" stroke:none;fill-rule:nonzero;fill:url(#linear24);" d="M 0.898438 50.199219 L 0 49.5 C 8.699219 37.800781 18.898438 27 30.300781 17.300781 L 31 18.101562 C 19.699219 27.800781 9.601562 38.601562 0.898438 50.199219 Z M 0.898438 50.199219 "/>
</g>
</svg>
