<?xml version="1.0" encoding="UTF-8"?>
<svg xmlns="http://www.w3.org/2000/svg" xmlns:xlink="http://www.w3.org/1999/xlink" width="237px" height="150px" viewBox="0 0 236 150" version="1.1">
<defs>
<linearGradient id="linear0" gradientUnits="userSpaceOnUse" x1="39.6104" y1="218.2609" x2="166.7452" y2="82.2266" gradientTransform="matrix(0.786667,0,0,0.789474,0,0)">
<stop offset="0" style="stop-color:rgb(98.431373%,89.411765%,75.686275%);stop-opacity:1;"/>
<stop offset="0.5169" style="stop-color:rgb(92.54902%,82.352941%,67.058824%);stop-opacity:1;"/>
<stop offset="1" style="stop-color:rgb(77.254902%,60%,46.666667%);stop-opacity:1;"/>
</linearGradient>
<linearGradient id="linear1" gradientUnits="userSpaceOnUse" x1="45.4792" y1="223.7458" x2="172.614" y2="87.7115" gradientTransform="matrix(0.786667,0,0,0.789474,0,0)">
<stop offset="0" style="stop-color:rgb(98.431373%,89.411765%,75.686275%);stop-opacity:1;"/>
<stop offset="0.5169" style="stop-color:rgb(92.54902%,82.352941%,67.058824%);stop-opacity:1;"/>
<stop offset="1" style="stop-color:rgb(77.254902%,60%,46.666667%);stop-opacity:1;"/>
</linearGradient>
<linearGradient id="linear2" gradientUnits="userSpaceOnUse" x1="50.1411" y1="228.1027" x2="177.2759" y2="92.0684" gradientTransform="matrix(0.786667,0,0,0.789474,0,0)">
<stop offset="0" style="stop-color:rgb(98.431373%,89.411765%,75.686275%);stop-opacity:1;"/>
<stop offset="0.5169" style="stop-color:rgb(92.54902%,82.352941%,67.058824%);stop-opacity:1;"/>
<stop offset="1" style="stop-color:rgb(77.254902%,60%,46.666667%);stop-opacity:1;"/>
</linearGradient>
<linearGradient id="linear3" gradientUnits="userSpaceOnUse" x1="55.7876" y1="233.3798" x2="182.9224" y2="97.3455" gradientTransform="matrix(0.786667,0,0,0.789474,0,0)">
<stop offset="0" style="stop-color:rgb(98.431373%,89.411765%,75.686275%);stop-opacity:1;"/>
<stop offset="0.5169" style="stop-color:rgb(92.54902%,82.352941%,67.058824%);stop-opacity:1;"/>
<stop offset="1" style="stop-color:rgb(77.254902%,60%,46.666667%);stop-opacity:1;"/>
</linearGradient>
<linearGradient id="linear4" gradientUnits="userSpaceOnUse" x1="60.323" y1="237.6185" x2="187.4579" y2="101.5842" gradientTransform="matrix(0.786667,0,0,0.789474,0,0)">
<stop offset="0" style="stop-color:rgb(98.431373%,89.411765%,75.686275%);stop-opacity:1;"/>
<stop offset="0.5169" style="stop-color:rgb(92.54902%,82.352941%,67.058824%);stop-opacity:1;"/>
<stop offset="1" style="stop-color:rgb(77.254902%,60%,46.666667%);stop-opacity:1;"/>
</linearGradient>
<linearGradient id="linear5" gradientUnits="userSpaceOnUse" x1="64.8044" y1="241.8068" x2="191.9393" y2="105.7725" gradientTransform="matrix(0.786667,0,0,0.789474,0,0)">
<stop offset="0" style="stop-color:rgb(98.431373%,89.411765%,75.686275%);stop-opacity:1;"/>
<stop offset="0.5169" style="stop-color:rgb(92.54902%,82.352941%,67.058824%);stop-opacity:1;"/>
<stop offset="1" style="stop-color:rgb(77.254902%,60%,46.666667%);stop-opacity:1;"/>
</linearGradient>
<linearGradient id="linear6" gradientUnits="userSpaceOnUse" x1="70.2077" y1="246.8565" x2="197.3425" y2="110.8222" gradientTransform="matrix(0.786667,0,0,0.789474,0,0)">
<stop offset="0" style="stop-color:rgb(98.431373%,89.411765%,75.686275%);stop-opacity:1;"/>
<stop offset="0.5169" style="stop-color:rgb(92.54902%,82.352941%,67.058824%);stop-opacity:1;"/>
<stop offset="1" style="stop-color:rgb(77.254902%,60%,46.666667%);stop-opacity:1;"/>
</linearGradient>
<linearGradient id="linear7" gradientUnits="userSpaceOnUse" x1="75.9048" y1="252.1809" x2="203.0396" y2="116.1466" gradientTransform="matrix(0.786667,0,0,0.789474,0,0)">
<stop offset="0" style="stop-color:rgb(98.431373%,89.411765%,75.686275%);stop-opacity:1;"/>
<stop offset="0.5169" style="stop-color:rgb(92.54902%,82.352941%,67.058824%);stop-opacity:1;"/>
<stop offset="1" style="stop-color:rgb(77.254902%,60%,46.666667%);stop-opacity:1;"/>
</linearGradient>
<linearGradient id="linear8" gradientUnits="userSpaceOnUse" x1="81.0171" y1="256.9588" x2="208.1519" y2="120.9245" gradientTransform="matrix(0.786667,0,0,0.789474,0,0)">
<stop offset="0" style="stop-color:rgb(98.431373%,89.411765%,75.686275%);stop-opacity:1;"/>
<stop offset="0.5169" style="stop-color:rgb(92.54902%,82.352941%,67.058824%);stop-opacity:1;"/>
<stop offset="1" style="stop-color:rgb(77.254902%,60%,46.666667%);stop-opacity:1;"/>
</linearGradient>
<linearGradient id="linear9" gradientUnits="userSpaceOnUse" x1="90.1175" y1="265.4639" x2="217.2524" y2="129.4295" gradientTransform="matrix(0.786667,0,0,0.789474,0,0)">
<stop offset="0" style="stop-color:rgb(98.431373%,89.411765%,75.686275%);stop-opacity:1;"/>
<stop offset="0.5169" style="stop-color:rgb(92.54902%,82.352941%,67.058824%);stop-opacity:1;"/>
<stop offset="1" style="stop-color:rgb(77.254902%,60%,46.666667%);stop-opacity:1;"/>
</linearGradient>
<linearGradient id="linear10" gradientUnits="userSpaceOnUse" x1="94.8824" y1="269.9171" x2="222.0173" y2="133.8828" gradientTransform="matrix(0.786667,0,0,0.789474,0,0)">
<stop offset="0" style="stop-color:rgb(98.431373%,89.411765%,75.686275%);stop-opacity:1;"/>
<stop offset="0.5169" style="stop-color:rgb(92.54902%,82.352941%,67.058824%);stop-opacity:1;"/>
<stop offset="1" style="stop-color:rgb(77.254902%,60%,46.666667%);stop-opacity:1;"/>
</linearGradient>
<linearGradient id="linear11" gradientUnits="userSpaceOnUse" x1="100.8376" y1="275.4826" x2="227.9724" y2="139.4483" gradientTransform="matrix(0.786667,0,0,0.789474,0,0)">
<stop offset="0" style="stop-color:rgb(98.431373%,89.411765%,75.686275%);stop-opacity:1;"/>
<stop offset="0.5169" style="stop-color:rgb(92.54902%,82.352941%,67.058824%);stop-opacity:1;"/>
<stop offset="1" style="stop-color:rgb(77.254902%,60%,46.666667%);stop-opacity:1;"/>
</linearGradient>
<linearGradient id="linear12" gradientUnits="userSpaceOnUse" x1="104.467" y1="278.8746" x2="231.6019" y2="142.8403" gradientTransform="matrix(0.786667,0,0,0.789474,0,0)">
<stop offset="0" style="stop-color:rgb(98.431373%,89.411765%,75.686275%);stop-opacity:1;"/>
<stop offset="0.5169" style="stop-color:rgb(92.54902%,82.352941%,67.058824%);stop-opacity:1;"/>
<stop offset="1" style="stop-color:rgb(77.254902%,60%,46.666667%);stop-opacity:1;"/>
</linearGradient>
<linearGradient id="linear13" gradientUnits="userSpaceOnUse" x1="110.1135" y1="284.1517" x2="237.2484" y2="148.1174" gradientTransform="matrix(0.786667,0,0,0.789474,0,0)">
<stop offset="0" style="stop-color:rgb(98.431373%,89.411765%,75.686275%);stop-opacity:1;"/>
<stop offset="0.5169" style="stop-color:rgb(92.54902%,82.352941%,67.058824%);stop-opacity:1;"/>
<stop offset="1" style="stop-color:rgb(77.254902%,60%,46.666667%);stop-opacity:1;"/>
</linearGradient>
<linearGradient id="linear14" gradientUnits="userSpaceOnUse" x1="114.6489" y1="288.3904" x2="241.7838" y2="152.3561" gradientTransform="matrix(0.786667,0,0,0.789474,0,0)">
<stop offset="0" style="stop-color:rgb(98.431373%,89.411765%,75.686275%);stop-opacity:1;"/>
<stop offset="0.5169" style="stop-color:rgb(92.54902%,82.352941%,67.058824%);stop-opacity:1;"/>
<stop offset="1" style="stop-color:rgb(77.254902%,60%,46.666667%);stop-opacity:1;"/>
</linearGradient>
<linearGradient id="linear15" gradientUnits="userSpaceOnUse" x1="120.214" y1="293.5914" x2="247.3489" y2="157.5571" gradientTransform="matrix(0.786667,0,0,0.789474,0,0)">
<stop offset="0" style="stop-color:rgb(98.431373%,89.411765%,75.686275%);stop-opacity:1;"/>
<stop offset="0.5169" style="stop-color:rgb(92.54902%,82.352941%,67.058824%);stop-opacity:1;"/>
<stop offset="1" style="stop-color:rgb(77.254902%,60%,46.666667%);stop-opacity:1;"/>
</linearGradient>
<linearGradient id="linear16" gradientUnits="userSpaceOnUse" x1="-6.635" y1="175.041" x2="120.4999" y2="39.0066" gradientTransform="matrix(0.786667,0,0,0.789474,0,0)">
<stop offset="0" style="stop-color:rgb(98.431373%,89.411765%,75.686275%);stop-opacity:1;"/>
<stop offset="0.5169" style="stop-color:rgb(92.54902%,82.352941%,67.058824%);stop-opacity:1;"/>
<stop offset="1" style="stop-color:rgb(77.254902%,60%,46.666667%);stop-opacity:1;"/>
</linearGradient>
<linearGradient id="linear17" gradientUnits="userSpaceOnUse" x1="7.959" y1="188.6802" x2="135.0939" y2="52.6459" gradientTransform="matrix(0.786667,0,0,0.789474,0,0)">
<stop offset="0" style="stop-color:rgb(98.431373%,89.411765%,75.686275%);stop-opacity:1;"/>
<stop offset="0.5169" style="stop-color:rgb(92.54902%,82.352941%,67.058824%);stop-opacity:1;"/>
<stop offset="1" style="stop-color:rgb(77.254902%,60%,46.666667%);stop-opacity:1;"/>
</linearGradient>
<linearGradient id="linear18" gradientUnits="userSpaceOnUse" x1="49.1177" y1="227.1463" x2="176.2525" y2="91.1119" gradientTransform="matrix(0.786667,0,0,0.789474,0,0)">
<stop offset="0" style="stop-color:rgb(98.431373%,89.411765%,75.686275%);stop-opacity:1;"/>
<stop offset="0.5169" style="stop-color:rgb(92.54902%,82.352941%,67.058824%);stop-opacity:1;"/>
<stop offset="1" style="stop-color:rgb(77.254902%,60%,46.666667%);stop-opacity:1;"/>
</linearGradient>
<linearGradient id="linear19" gradientUnits="userSpaceOnUse" x1="75.8356" y1="252.1163" x2="202.9705" y2="116.082" gradientTransform="matrix(0.786667,0,0,0.789474,0,0)">
<stop offset="0" style="stop-color:rgb(98.431373%,89.411765%,75.686275%);stop-opacity:1;"/>
<stop offset="0.5169" style="stop-color:rgb(92.54902%,82.352941%,67.058824%);stop-opacity:1;"/>
<stop offset="1" style="stop-color:rgb(77.254902%,60%,46.666667%);stop-opacity:1;"/>
</linearGradient>
<linearGradient id="linear20" gradientUnits="userSpaceOnUse" x1="100.7826" y1="275.4313" x2="227.9175" y2="139.397" gradientTransform="matrix(0.786667,0,0,0.789474,0,0)">
<stop offset="0" style="stop-color:rgb(98.431373%,89.411765%,75.686275%);stop-opacity:1;"/>
<stop offset="0.5169" style="stop-color:rgb(92.54902%,82.352941%,67.058824%);stop-opacity:1;"/>
<stop offset="1" style="stop-color:rgb(77.254902%,60%,46.666667%);stop-opacity:1;"/>
</linearGradient>
<linearGradient id="linear21" gradientUnits="userSpaceOnUse" x1="129.6535" y1="302.4134" x2="256.7884" y2="166.3791" gradientTransform="matrix(0.786667,0,0,0.789474,0,0)">
<stop offset="0" style="stop-color:rgb(98.431373%,89.411765%,75.686275%);stop-opacity:1;"/>
<stop offset="0.5169" style="stop-color:rgb(92.54902%,82.352941%,67.058824%);stop-opacity:1;"/>
<stop offset="1" style="stop-color:rgb(77.254902%,60%,46.666667%);stop-opacity:1;"/>
</linearGradient>
<linearGradient id="linear22" gradientUnits="userSpaceOnUse" x1="10.1968" y1="190.7716" x2="137.3317" y2="54.7373" gradientTransform="matrix(0.786667,0,0,0.789474,0,0)">
<stop offset="0" style="stop-color:rgb(98.431373%,89.411765%,75.686275%);stop-opacity:1;"/>
<stop offset="0.5169" style="stop-color:rgb(92.54902%,82.352941%,67.058824%);stop-opacity:1;"/>
<stop offset="1" style="stop-color:rgb(77.254902%,60%,46.666667%);stop-opacity:1;"/>
</linearGradient>
<linearGradient id="linear23" gradientUnits="userSpaceOnUse" x1="41.4975" y1="220.0246" x2="168.6324" y2="83.9903" gradientTransform="matrix(0.786667,0,0,0.789474,0,0)">
<stop offset="0" style="stop-color:rgb(98.431373%,89.411765%,75.686275%);stop-opacity:1;"/>
<stop offset="0.5169" style="stop-color:rgb(92.54902%,82.352941%,67.058824%);stop-opacity:1;"/>
<stop offset="1" style="stop-color:rgb(77.254902%,60%,46.666667%);stop-opacity:1;"/>
</linearGradient>
<linearGradient id="linear24" gradientUnits="userSpaceOnUse" x1="-14.2673" y1="167.908" x2="112.8676" y2="31.8737" gradientTransform="matrix(0.786667,0,0,0.789474,0,0)">
<stop offset="0" style="stop-color:rgb(98.431373%,89.411765%,75.686275%);stop-opacity:1;"/>
<stop offset="0.5169" style="stop-color:rgb(92.54902%,82.352941%,67.058824%);stop-opacity:1;"/>
<stop offset="1" style="stop-color:rgb(77.254902%,60%,46.666667%);stop-opacity:1;"/>
</linearGradient>
<linearGradient id="linear25" gradientUnits="userSpaceOnUse" x1="0.9371" y1="182.1177" x2="128.072" y2="46.0834" gradientTransform="matrix(0.786667,0,0,0.789474,0,0)">
<stop offset="0" style="stop-color:rgb(98.431373%,89.411765%,75.686275%);stop-opacity:1;"/>
<stop offset="0.5169" style="stop-color:rgb(92.54902%,82.352941%,67.058824%);stop-opacity:1;"/>
<stop offset="1" style="stop-color:rgb(77.254902%,60%,46.666667%);stop-opacity:1;"/>
</linearGradient>
<linearGradient id="linear26" gradientUnits="userSpaceOnUse" x1="8.1483" y1="188.8571" x2="135.2832" y2="52.8228" gradientTransform="matrix(0.786667,0,0,0.789474,0,0)">
<stop offset="0" style="stop-color:rgb(98.431373%,89.411765%,75.686275%);stop-opacity:1;"/>
<stop offset="0.5169" style="stop-color:rgb(92.54902%,82.352941%,67.058824%);stop-opacity:1;"/>
<stop offset="1" style="stop-color:rgb(77.254902%,60%,46.666667%);stop-opacity:1;"/>
</linearGradient>
<linearGradient id="linear27" gradientUnits="userSpaceOnUse" x1="13.7677" y1="194.1089" x2="140.9026" y2="58.0746" gradientTransform="matrix(0.786667,0,0,0.789474,0,0)">
<stop offset="0" style="stop-color:rgb(98.431373%,89.411765%,75.686275%);stop-opacity:1;"/>
<stop offset="0.5169" style="stop-color:rgb(92.54902%,82.352941%,67.058824%);stop-opacity:1;"/>
<stop offset="1" style="stop-color:rgb(77.254902%,60%,46.666667%);stop-opacity:1;"/>
</linearGradient>
<linearGradient id="linear28" gradientUnits="userSpaceOnUse" x1="23.2445" y1="202.9658" x2="150.3794" y2="66.9315" gradientTransform="matrix(0.786667,0,0,0.789474,0,0)">
<stop offset="0" style="stop-color:rgb(98.431373%,89.411765%,75.686275%);stop-opacity:1;"/>
<stop offset="0.5169" style="stop-color:rgb(92.54902%,82.352941%,67.058824%);stop-opacity:1;"/>
<stop offset="1" style="stop-color:rgb(77.254902%,60%,46.666667%);stop-opacity:1;"/>
</linearGradient>
<linearGradient id="linear29" gradientUnits="userSpaceOnUse" x1="2.5829" y1="183.6559" x2="129.7178" y2="47.6216" gradientTransform="matrix(0.786667,0,0,0.789474,0,0)">
<stop offset="0" style="stop-color:rgb(98.431373%,89.411765%,75.686275%);stop-opacity:1;"/>
<stop offset="0.5169" style="stop-color:rgb(92.54902%,82.352941%,67.058824%);stop-opacity:1;"/>
<stop offset="1" style="stop-color:rgb(77.254902%,60%,46.666667%);stop-opacity:1;"/>
</linearGradient>
<linearGradient id="linear30" gradientUnits="userSpaceOnUse" x1="12.8122" y1="193.216" x2="139.9471" y2="57.1816" gradientTransform="matrix(0.786667,0,0,0.789474,0,0)">
<stop offset="0" style="stop-color:rgb(98.431373%,89.411765%,75.686275%);stop-opacity:1;"/>
<stop offset="0.5169" style="stop-color:rgb(92.54902%,82.352941%,67.058824%);stop-opacity:1;"/>
<stop offset="1" style="stop-color:rgb(77.254902%,60%,46.666667%);stop-opacity:1;"/>
</linearGradient>
<linearGradient id="linear31" gradientUnits="userSpaceOnUse" x1="7.5721" y1="188.3187" x2="134.707" y2="52.2843" gradientTransform="matrix(0.786667,0,0,0.789474,0,0)">
<stop offset="0" style="stop-color:rgb(98.431373%,89.411765%,75.686275%);stop-opacity:1;"/>
<stop offset="0.5169" style="stop-color:rgb(92.54902%,82.352941%,67.058824%);stop-opacity:1;"/>
<stop offset="1" style="stop-color:rgb(77.254902%,60%,46.666667%);stop-opacity:1;"/>
</linearGradient>
<linearGradient id="linear32" gradientUnits="userSpaceOnUse" x1="21.0581" y1="200.9224" x2="148.193" y2="64.8881" gradientTransform="matrix(0.786667,0,0,0.789474,0,0)">
<stop offset="0" style="stop-color:rgb(98.431373%,89.411765%,75.686275%);stop-opacity:1;"/>
<stop offset="0.5169" style="stop-color:rgb(92.54902%,82.352941%,67.058824%);stop-opacity:1;"/>
<stop offset="1" style="stop-color:rgb(77.254902%,60%,46.666667%);stop-opacity:1;"/>
</linearGradient>
</defs>
<g id="surface1">
<path style=" stroke:none;fill-rule:nonzero;fill:url(#linear0);" d="M 61.203125 141.316406 C 61.515625 141.550781 61.832031 141.789062 61.988281 142.183594 C 62.148438 142.5 62.226562 142.894531 62.226562 143.289062 C 62.226562 143.761719 62.148438 144.15625 61.910156 144.472656 C 61.675781 144.867188 61.359375 145.105469 61.046875 145.34375 C 60.652344 145.578125 60.257812 145.65625 59.785156 145.65625 C 59.316406 145.65625 59 145.578125 58.605469 145.34375 C 58.292969 145.105469 57.976562 144.867188 57.820312 144.472656 C 57.664062 144.078125 57.503906 143.683594 57.503906 143.289062 L 56.402344 143.289062 L 56.402344 144.949219 C 56.402344 145.105469 56.402344 145.183594 56.484375 145.261719 C 56.484375 145.34375 56.5625 145.34375 56.640625 145.421875 C 56.71875 145.421875 56.875 145.421875 57.035156 145.421875 C 57.035156 145.421875 57.035156 145.421875 57.035156 145.5 C 57.035156 145.578125 57.035156 145.578125 57.035156 145.578125 C 56.875 145.578125 56.71875 145.578125 56.640625 145.578125 L 55.617188 145.578125 C 55.539062 145.578125 55.382812 145.578125 55.222656 145.578125 C 55.222656 145.578125 55.222656 145.578125 55.222656 145.5 C 55.222656 145.421875 55.222656 145.421875 55.222656 145.421875 C 55.382812 145.421875 55.539062 145.421875 55.617188 145.421875 C 55.695312 145.421875 55.773438 145.34375 55.773438 145.261719 C 55.773438 145.183594 55.851562 145.105469 55.851562 144.949219 L 55.851562 141.550781 C 55.851562 141.394531 55.851562 141.316406 55.773438 141.238281 C 55.773438 141.15625 55.695312 141.15625 55.617188 141.078125 C 55.539062 141.078125 55.382812 141 55.222656 141 C 55.222656 141 55.222656 141 55.222656 140.921875 C 55.222656 140.84375 55.222656 140.84375 55.222656 140.84375 L 55.617188 140.84375 C 55.851562 140.84375 56.011719 140.84375 56.089844 140.84375 C 56.246094 140.84375 56.402344 140.84375 56.640625 140.84375 L 57.035156 140.84375 C 57.035156 140.84375 57.035156 140.84375 57.035156 140.921875 C 57.035156 141 57.035156 141 57.035156 141 C 56.875 141 56.71875 141 56.640625 141.078125 C 56.5625 141.078125 56.484375 141.15625 56.484375 141.238281 C 56.484375 141.316406 56.402344 141.394531 56.402344 141.550781 L 56.402344 143.050781 L 57.503906 143.050781 C 57.503906 142.578125 57.664062 142.183594 57.898438 141.867188 C 58.132812 141.550781 58.449219 141.316406 58.84375 141.15625 C 59.234375 141 59.550781 140.921875 59.945312 140.921875 C 60.496094 141 60.886719 141.078125 61.203125 141.316406 Z M 60.808594 145.34375 C 61.046875 145.183594 61.203125 144.949219 61.359375 144.632812 C 61.515625 144.316406 61.597656 143.921875 61.597656 143.527344 C 61.597656 143.050781 61.515625 142.65625 61.359375 142.34375 C 61.203125 142.027344 60.964844 141.710938 60.730469 141.472656 C 60.414062 141.238281 60.101562 141.15625 59.707031 141.15625 C 59.234375 141.15625 58.84375 141.316406 58.527344 141.710938 C 58.292969 142.027344 58.132812 142.5 58.132812 143.132812 C 58.132812 143.605469 58.214844 144 58.371094 144.394531 C 58.527344 144.789062 58.765625 145.027344 59 145.261719 C 59.316406 145.5 59.628906 145.578125 59.945312 145.578125 C 60.335938 145.578125 60.574219 145.5 60.808594 145.34375 Z M 60.808594 145.34375 "/>
<path style=" stroke:none;fill-rule:nonzero;fill:url(#linear1);" d="M 68.519531 143.449219 C 68.753906 143.683594 68.832031 143.921875 68.832031 144.316406 C 68.832031 144.550781 68.753906 144.789062 68.675781 145.027344 C 68.519531 145.261719 68.363281 145.421875 68.125 145.5 C 67.890625 145.65625 67.652344 145.65625 67.339844 145.65625 C 67.179688 145.65625 67.023438 145.65625 66.867188 145.65625 C 66.789062 145.65625 66.710938 145.65625 66.628906 145.65625 C 66.550781 145.65625 66.472656 145.65625 66.316406 145.65625 L 65.84375 145.65625 C 65.765625 145.65625 65.609375 145.65625 65.449219 145.65625 C 65.449219 145.65625 65.449219 145.65625 65.449219 145.578125 C 65.449219 145.5 65.449219 145.5 65.449219 145.5 C 65.609375 145.5 65.765625 145.5 65.84375 145.421875 C 65.921875 145.421875 66 145.34375 66 145.261719 C 66 145.183594 66.078125 145.105469 66.078125 144.949219 L 66.078125 141.550781 C 66.078125 141.394531 66.078125 141.316406 66 141.238281 C 66 141.15625 65.921875 141.15625 65.84375 141.078125 C 65.765625 141.078125 65.609375 141 65.449219 141 C 65.449219 141 65.449219 141 65.449219 140.921875 C 65.449219 140.84375 65.449219 140.84375 65.449219 140.84375 L 65.84375 140.84375 C 66.078125 140.84375 66.238281 140.84375 66.316406 140.84375 C 66.394531 140.84375 66.472656 140.84375 66.550781 140.84375 C 66.628906 140.84375 66.710938 140.84375 66.710938 140.84375 C 66.867188 140.84375 67.023438 140.84375 67.101562 140.84375 C 67.496094 140.84375 67.8125 140.921875 68.046875 141.078125 C 68.28125 141.238281 68.363281 141.472656 68.363281 141.789062 C 68.363281 142.027344 68.28125 142.261719 68.125 142.421875 C 67.96875 142.578125 67.730469 142.738281 67.496094 142.816406 C 67.96875 143.132812 68.28125 143.210938 68.519531 143.449219 Z M 66.789062 141.238281 C 66.710938 141.238281 66.710938 141.316406 66.628906 141.394531 C 66.628906 141.472656 66.550781 141.550781 66.550781 141.710938 L 66.550781 143.132812 L 66.867188 143.132812 C 67.179688 143.132812 67.417969 143.050781 67.574219 142.816406 C 67.730469 142.65625 67.8125 142.421875 67.8125 142.105469 C 67.8125 141.867188 67.730469 141.632812 67.574219 141.472656 C 67.417969 141.316406 67.179688 141.238281 66.945312 141.238281 C 66.945312 141.15625 66.789062 141.15625 66.789062 141.238281 Z M 68.046875 145.261719 C 68.203125 145.105469 68.28125 144.789062 68.28125 144.472656 C 68.28125 144.078125 68.203125 143.84375 67.96875 143.605469 C 67.730469 143.367188 67.496094 143.289062 67.101562 143.289062 C 66.945312 143.289062 66.789062 143.289062 66.550781 143.289062 L 66.550781 145.105469 C 66.550781 145.261719 66.550781 145.34375 66.628906 145.421875 C 66.628906 145.5 66.710938 145.5 66.867188 145.578125 C 66.945312 145.578125 67.101562 145.65625 67.261719 145.65625 C 67.652344 145.5 67.890625 145.421875 68.046875 145.261719 Z M 68.046875 145.261719 "/>
<path style=" stroke:none;fill-rule:nonzero;fill:url(#linear2);" d="M 75.285156 144.550781 C 75.285156 144.550781 75.363281 144.550781 75.285156 144.550781 C 75.285156 144.867188 75.285156 145.183594 75.285156 145.578125 C 75.285156 145.578125 75.285156 145.65625 75.285156 145.65625 C 75.285156 145.65625 75.207031 145.65625 75.207031 145.65625 L 72.136719 145.65625 C 72.136719 145.65625 72.136719 145.65625 72.136719 145.578125 C 72.136719 145.5 72.136719 145.5 72.136719 145.5 C 72.292969 145.5 72.453125 145.5 72.53125 145.5 C 72.609375 145.5 72.6875 145.421875 72.6875 145.34375 C 72.6875 145.261719 72.765625 145.183594 72.765625 145.027344 L 72.765625 141.632812 C 72.765625 141.472656 72.765625 141.394531 72.6875 141.316406 C 72.6875 141.238281 72.609375 141.238281 72.53125 141.15625 C 72.453125 141.15625 72.292969 141.078125 72.136719 141.078125 C 72.136719 141.078125 72.136719 141.078125 72.136719 141 C 72.136719 140.921875 72.136719 140.921875 72.136719 140.921875 L 75.046875 140.921875 C 75.125 140.921875 75.125 140.921875 75.125 141 L 75.125 141.949219 C 75.125 141.949219 75.125 141.949219 75.046875 141.949219 C 74.96875 141.949219 74.96875 141.949219 74.96875 141.949219 C 74.96875 141.710938 74.8125 141.472656 74.734375 141.316406 C 74.65625 141.15625 74.417969 141.078125 74.183594 141.078125 L 73.789062 141.078125 C 73.554688 141.078125 73.394531 141.078125 73.316406 141.15625 C 73.238281 141.238281 73.238281 141.316406 73.238281 141.550781 L 73.238281 143.050781 L 74.105469 143.050781 C 74.339844 143.050781 74.496094 142.972656 74.65625 142.894531 C 74.734375 142.816406 74.8125 142.65625 74.8125 142.5 C 74.8125 142.5 74.8125 142.5 74.890625 142.5 C 74.890625 142.5 74.96875 142.5 74.96875 142.5 L 74.96875 143.132812 C 74.96875 143.289062 74.96875 143.367188 74.96875 143.449219 L 74.96875 143.84375 C 74.96875 143.84375 74.96875 143.84375 74.890625 143.84375 C 74.890625 143.84375 74.8125 143.84375 74.8125 143.84375 C 74.8125 143.605469 74.734375 143.449219 74.65625 143.367188 C 74.574219 143.289062 74.339844 143.210938 74.105469 143.210938 L 73.316406 143.210938 L 73.316406 144.867188 C 73.316406 145.027344 73.316406 145.105469 73.394531 145.183594 C 73.394531 145.261719 73.476562 145.261719 73.554688 145.34375 C 73.632812 145.34375 73.710938 145.421875 73.867188 145.421875 L 74.417969 145.421875 C 74.65625 145.421875 74.890625 145.34375 75.046875 145.183594 C 75.046875 145.027344 75.207031 144.789062 75.285156 144.550781 C 75.285156 144.550781 75.285156 144.472656 75.285156 144.550781 Z M 75.285156 144.550781 "/>
<path style=" stroke:none;fill-rule:nonzero;fill:url(#linear3);" d="M 83.386719 145.578125 C 83.386719 145.578125 83.308594 145.65625 83.386719 145.578125 C 83.230469 145.65625 83.152344 145.578125 82.914062 145.578125 C 82.757812 145.578125 82.601562 145.578125 82.519531 145.578125 C 82.441406 145.578125 82.285156 145.578125 82.128906 145.578125 C 81.96875 145.578125 81.8125 145.578125 81.734375 145.578125 C 81.734375 145.578125 81.734375 145.578125 81.734375 145.5 C 81.734375 145.421875 81.734375 145.421875 81.734375 145.421875 C 81.890625 145.421875 82.050781 145.421875 82.128906 145.34375 C 82.207031 145.34375 82.207031 145.261719 82.207031 145.183594 C 82.207031 145.105469 82.207031 145.027344 82.128906 144.867188 L 80.554688 141.632812 L 79.296875 144.550781 C 79.21875 144.710938 79.21875 144.867188 79.21875 144.949219 C 79.21875 145.261719 79.453125 145.421875 79.925781 145.421875 C 79.925781 145.421875 79.925781 145.421875 79.925781 145.5 C 79.925781 145.578125 79.925781 145.578125 79.925781 145.578125 C 79.847656 145.578125 79.6875 145.578125 79.53125 145.578125 C 79.375 145.578125 79.21875 145.578125 79.058594 145.578125 C 78.902344 145.578125 78.824219 145.578125 78.589844 145.578125 C 78.429688 145.578125 78.351562 145.578125 78.195312 145.578125 C 78.195312 145.578125 78.195312 145.578125 78.195312 145.5 C 78.195312 145.421875 78.195312 145.421875 78.195312 145.421875 C 78.351562 145.421875 78.429688 145.421875 78.507812 145.34375 C 78.589844 145.261719 78.667969 145.183594 78.746094 145.105469 C 78.824219 144.949219 78.902344 144.789062 79.058594 144.550781 L 80.554688 140.921875 C 80.554688 140.921875 80.554688 140.921875 80.632812 140.921875 C 80.632812 140.921875 80.710938 140.921875 80.710938 140.921875 L 82.441406 144.550781 C 82.601562 144.867188 82.757812 145.183594 82.835938 145.261719 C 83.070312 145.5 83.152344 145.5 83.386719 145.578125 C 83.308594 145.5 83.386719 145.578125 83.386719 145.578125 Z M 83.386719 145.578125 "/>
<path style=" stroke:none;fill-rule:nonzero;fill:url(#linear4);" d="M 91.175781 145.578125 C 91.175781 145.578125 91.175781 145.65625 91.175781 145.578125 C 91.015625 145.65625 90.859375 145.65625 90.78125 145.578125 L 89.679688 145.578125 C 89.601562 145.578125 89.445312 145.578125 89.367188 145.578125 C 89.367188 145.578125 89.367188 145.578125 89.367188 145.5 C 89.367188 145.421875 89.367188 145.421875 89.367188 145.421875 C 89.523438 145.421875 89.679688 145.421875 89.757812 145.421875 C 89.835938 145.421875 89.914062 145.34375 89.914062 145.261719 C 89.914062 145.183594 89.996094 145.105469 89.996094 144.949219 L 89.996094 141.632812 L 86.925781 145.578125 C 86.925781 145.578125 86.847656 145.578125 86.847656 145.578125 C 86.847656 145.578125 86.769531 145.578125 86.769531 145.578125 L 86.769531 141.550781 C 86.769531 141.394531 86.769531 141.316406 86.691406 141.238281 C 86.691406 141.15625 86.613281 141.15625 86.535156 141.078125 C 86.453125 141.078125 86.296875 141 86.140625 141 C 86.140625 141 86.140625 141 86.140625 140.921875 C 86.140625 140.84375 86.140625 140.84375 86.140625 140.84375 L 86.535156 140.84375 C 86.769531 140.84375 86.925781 140.84375 87.003906 140.84375 C 87.164062 140.84375 87.320312 140.84375 87.554688 140.84375 L 87.871094 140.84375 C 87.871094 140.84375 87.871094 140.84375 87.871094 140.921875 C 87.871094 141 87.871094 141 87.871094 141 C 87.714844 141 87.554688 141 87.476562 141.078125 C 87.398438 141.078125 87.320312 141.15625 87.320312 141.238281 C 87.320312 141.316406 87.242188 141.394531 87.242188 141.550781 L 87.242188 144.867188 L 90.308594 140.921875 C 90.308594 140.921875 90.386719 140.921875 90.386719 140.921875 C 90.386719 140.921875 90.464844 140.921875 90.464844 140.921875 L 90.464844 144.867188 C 90.464844 145.027344 90.464844 145.105469 90.546875 145.183594 C 90.546875 145.261719 90.625 145.261719 90.703125 145.34375 C 90.78125 145.421875 91.015625 145.5 91.175781 145.578125 C 91.175781 145.5 91.175781 145.578125 91.175781 145.578125 Z M 91.175781 145.578125 "/>
<path style=" stroke:none;fill-rule:nonzero;fill:url(#linear5);" d="M 95.5 145.34375 C 95.5 145.421875 95.578125 145.5 95.738281 145.5 C 95.816406 145.5 96.050781 145.578125 96.289062 145.578125 C 96.289062 145.578125 96.289062 145.578125 96.289062 145.65625 C 96.289062 145.738281 96.289062 145.738281 96.289062 145.738281 C 96.050781 145.738281 95.972656 145.738281 95.816406 145.738281 L 94.714844 145.738281 C 94.636719 145.738281 94.480469 145.738281 94.320312 145.738281 C 94.320312 145.738281 94.320312 145.738281 94.320312 145.65625 C 94.320312 145.578125 94.320312 145.578125 94.320312 145.578125 C 94.480469 145.578125 94.636719 145.578125 94.714844 145.578125 C 94.792969 145.578125 94.871094 145.5 94.871094 145.421875 C 94.871094 145.34375 94.949219 145.261719 94.949219 145.105469 L 94.949219 141.710938 C 94.949219 141.550781 94.949219 141.472656 94.871094 141.394531 C 94.871094 141.316406 94.792969 141.316406 94.714844 141.238281 C 94.636719 141.15625 94.480469 141.15625 94.320312 141.15625 C 94.320312 141.15625 94.320312 141.15625 94.320312 141.078125 C 94.320312 141 94.320312 141 94.320312 141 L 94.714844 141 C 94.949219 141 95.109375 141 95.1875 141 C 95.265625 141 95.421875 141 95.578125 141 C 95.660156 141 95.738281 141 95.816406 141 C 95.972656 141 96.050781 141 96.128906 141 C 96.601562 141 96.917969 141.078125 97.230469 141.316406 C 97.46875 141.550781 97.625 141.789062 97.625 142.261719 C 97.625 142.578125 97.546875 142.816406 97.390625 143.050781 C 97.230469 143.289062 96.996094 143.449219 96.761719 143.527344 C 96.523438 143.605469 96.289062 143.683594 95.972656 143.683594 C 95.816406 143.683594 95.738281 143.683594 95.578125 143.683594 C 95.578125 143.683594 95.578125 143.683594 95.578125 143.605469 C 95.660156 143.605469 95.738281 143.605469 95.816406 143.605469 C 96.128906 143.605469 96.367188 143.527344 96.601562 143.289062 C 96.839844 143.050781 96.917969 142.816406 96.917969 142.421875 C 96.917969 142.027344 96.839844 141.710938 96.601562 141.550781 C 96.367188 141.316406 96.128906 141.238281 95.816406 141.238281 C 95.660156 141.238281 95.5 141.238281 95.5 141.238281 C 95.421875 141.238281 95.34375 141.316406 95.34375 141.394531 C 95.34375 141.472656 95.265625 141.550781 95.265625 141.710938 L 95.265625 145.027344 C 95.421875 145.183594 95.421875 145.261719 95.5 145.34375 Z M 95.5 145.34375 "/>
<path style=" stroke:none;fill-rule:nonzero;fill:url(#linear6);" d="M 105.726562 145.578125 C 105.726562 145.578125 105.726562 145.65625 105.726562 145.578125 C 105.570312 145.65625 105.414062 145.65625 105.335938 145.578125 L 104.234375 145.578125 C 104.15625 145.578125 104.074219 145.578125 103.917969 145.578125 C 103.917969 145.578125 103.917969 145.578125 103.917969 145.5 C 103.917969 145.421875 103.917969 145.421875 103.917969 145.421875 C 104.074219 145.421875 104.234375 145.421875 104.3125 145.421875 C 104.390625 145.421875 104.46875 145.34375 104.46875 145.261719 C 104.46875 145.183594 104.546875 145.105469 104.546875 144.949219 L 104.546875 143.289062 L 101.875 143.289062 L 101.875 144.949219 C 101.875 145.105469 101.875 145.183594 101.953125 145.261719 C 101.953125 145.34375 102.03125 145.34375 102.109375 145.421875 C 102.1875 145.421875 102.34375 145.421875 102.503906 145.421875 C 102.503906 145.421875 102.503906 145.421875 102.503906 145.5 C 102.503906 145.578125 102.503906 145.578125 102.503906 145.578125 C 102.34375 145.578125 102.1875 145.578125 102.109375 145.578125 L 101.085938 145.578125 C 101.007812 145.578125 100.851562 145.578125 100.691406 145.578125 C 100.691406 145.578125 100.691406 145.578125 100.691406 145.5 C 100.691406 145.421875 100.691406 145.421875 100.691406 145.421875 C 100.851562 145.421875 101.007812 145.421875 101.085938 145.421875 C 101.164062 145.421875 101.242188 145.34375 101.242188 145.261719 C 101.242188 145.183594 101.324219 145.105469 101.324219 144.949219 L 101.324219 141.550781 C 101.324219 141.394531 101.324219 141.316406 101.242188 141.238281 C 101.242188 141.15625 101.164062 141.15625 101.085938 141.078125 C 101.007812 141.078125 100.851562 141 100.691406 141 C 100.691406 141 100.691406 141 100.691406 140.921875 C 100.691406 140.84375 100.691406 140.84375 100.691406 140.84375 L 101.085938 140.84375 C 101.324219 140.84375 101.480469 140.84375 101.558594 140.84375 C 101.714844 140.84375 101.875 140.84375 102.109375 140.84375 L 102.503906 140.84375 C 102.503906 140.84375 102.503906 140.84375 102.503906 140.921875 C 102.503906 141 102.503906 141 102.503906 141 C 102.34375 141 102.1875 141 102.109375 141.078125 C 102.03125 141.078125 101.953125 141.15625 101.953125 141.238281 C 101.953125 141.316406 101.875 141.394531 101.875 141.550781 L 101.875 143.050781 L 104.546875 143.050781 L 104.546875 141.550781 C 104.546875 141.394531 104.546875 141.316406 104.46875 141.238281 C 104.46875 141.15625 104.390625 141.078125 104.3125 141.078125 C 104.234375 141.078125 104.074219 141 103.917969 141 C 103.917969 141 103.917969 141 103.917969 140.921875 C 103.917969 140.84375 103.917969 140.84375 103.917969 140.84375 L 104.234375 140.84375 C 104.46875 140.84375 104.625 140.84375 104.785156 140.84375 C 104.941406 140.84375 105.097656 140.84375 105.335938 140.84375 L 105.726562 140.84375 C 105.726562 140.84375 105.726562 140.84375 105.726562 140.921875 C 105.726562 141 105.726562 141 105.726562 141 C 105.570312 141 105.414062 141 105.335938 141.078125 C 105.257812 141.078125 105.175781 141.15625 105.175781 141.238281 C 105.175781 141.316406 105.097656 141.394531 105.097656 141.550781 L 105.097656 144.949219 C 105.097656 145.105469 105.097656 145.183594 105.175781 145.261719 C 105.175781 145.34375 105.257812 145.34375 105.335938 145.421875 C 105.414062 145.5 105.570312 145.5 105.726562 145.578125 C 105.726562 145.5 105.726562 145.578125 105.726562 145.578125 Z M 105.726562 145.578125 "/>
<path style=" stroke:none;fill-rule:nonzero;fill:url(#linear7);" d="M 112.257812 144.238281 C 112.257812 144.550781 112.179688 144.789062 112.101562 144.949219 C 111.941406 145.183594 111.785156 145.34375 111.550781 145.421875 C 111.3125 145.5 111.078125 145.578125 110.761719 145.578125 C 110.605469 145.578125 110.449219 145.578125 110.289062 145.578125 C 110.210938 145.578125 110.132812 145.578125 110.054688 145.578125 C 109.976562 145.578125 109.820312 145.578125 109.660156 145.578125 L 109.1875 145.578125 C 109.109375 145.578125 108.953125 145.578125 108.796875 145.578125 C 108.796875 145.578125 108.796875 145.578125 108.796875 145.5 C 108.796875 145.421875 108.796875 145.421875 108.796875 145.421875 C 108.953125 145.421875 109.109375 145.421875 109.1875 145.34375 C 109.269531 145.34375 109.347656 145.261719 109.347656 145.183594 C 109.347656 145.105469 109.425781 145.027344 109.425781 144.867188 L 109.425781 141.472656 C 109.425781 141.316406 109.425781 141.238281 109.347656 141.15625 C 109.347656 141.078125 109.269531 141.078125 109.1875 141 C 109.109375 141 108.953125 141 108.796875 140.921875 C 108.796875 140.921875 108.796875 140.921875 108.796875 140.84375 C 108.796875 140.761719 108.796875 140.761719 108.796875 140.761719 L 109.109375 140.761719 C 109.347656 140.761719 109.503906 140.761719 109.582031 140.761719 C 109.738281 140.761719 109.898438 140.761719 110.132812 140.761719 L 110.527344 140.761719 C 110.527344 140.761719 110.527344 140.761719 110.527344 140.84375 C 110.527344 140.921875 110.527344 140.921875 110.527344 140.921875 C 110.371094 140.921875 110.210938 140.921875 110.132812 141 C 110.054688 141.078125 109.976562 141.078125 109.976562 141.15625 C 109.976562 141.238281 109.898438 141.316406 109.898438 141.472656 L 109.898438 142.894531 C 110.210938 142.816406 110.449219 142.816406 110.683594 142.816406 C 111.785156 143.050781 112.257812 143.449219 112.257812 144.238281 Z M 111.46875 145.261719 C 111.628906 145.105469 111.707031 144.789062 111.707031 144.394531 C 111.707031 144 111.628906 143.683594 111.390625 143.449219 C 111.234375 143.289062 110.921875 143.132812 110.605469 143.132812 C 110.449219 143.132812 110.210938 143.132812 109.976562 143.210938 L 109.976562 144.949219 C 109.976562 145.105469 110.054688 145.261719 110.132812 145.34375 C 110.210938 145.421875 110.371094 145.421875 110.683594 145.421875 C 111 145.5 111.234375 145.421875 111.46875 145.261719 Z M 114.382812 145.578125 C 114.382812 145.578125 114.382812 145.65625 114.382812 145.578125 C 114.222656 145.65625 114.066406 145.65625 113.988281 145.578125 L 112.964844 145.578125 C 112.886719 145.578125 112.730469 145.578125 112.570312 145.578125 C 112.570312 145.578125 112.570312 145.578125 112.570312 145.5 C 112.570312 145.421875 112.570312 145.421875 112.570312 145.421875 C 112.730469 145.421875 112.886719 145.421875 112.964844 145.421875 C 113.042969 145.421875 113.121094 145.34375 113.121094 145.261719 C 113.121094 145.183594 113.203125 145.105469 113.203125 144.949219 L 113.203125 141.550781 C 113.203125 141.394531 113.203125 141.316406 113.121094 141.238281 C 113.121094 141.15625 113.042969 141.15625 112.964844 141.078125 C 112.886719 141.078125 112.730469 141 112.570312 141 C 112.570312 141 112.570312 141 112.570312 140.921875 C 112.570312 140.84375 112.570312 140.84375 112.570312 140.84375 L 112.964844 140.84375 C 113.203125 140.84375 113.359375 140.84375 113.4375 140.84375 C 113.59375 140.84375 113.753906 140.84375 113.988281 140.84375 L 114.300781 140.84375 C 114.300781 140.84375 114.300781 140.84375 114.300781 140.921875 C 114.300781 141 114.300781 141 114.300781 141 C 114.144531 141 113.988281 141 113.910156 141.078125 C 113.832031 141.078125 113.753906 141.15625 113.753906 141.238281 C 113.753906 141.316406 113.671875 141.394531 113.671875 141.550781 L 113.671875 144.949219 C 113.671875 145.105469 113.671875 145.183594 113.753906 145.261719 C 113.753906 145.34375 113.832031 145.34375 113.910156 145.421875 C 114.066406 145.5 114.222656 145.5 114.382812 145.578125 C 114.382812 145.5 114.382812 145.578125 114.382812 145.578125 Z M 114.382812 145.578125 "/>
<path style=" stroke:none;fill-rule:nonzero;fill:url(#linear8);" d="M 120.832031 144.550781 C 120.832031 144.867188 120.832031 145.183594 120.832031 145.578125 C 120.832031 145.578125 120.832031 145.65625 120.832031 145.65625 C 120.832031 145.65625 120.753906 145.65625 120.753906 145.65625 L 117.683594 145.65625 C 117.683594 145.65625 117.683594 145.65625 117.683594 145.578125 C 117.683594 145.5 117.683594 145.5 117.683594 145.5 C 117.84375 145.5 118 145.5 118.078125 145.5 C 118.15625 145.5 118.234375 145.421875 118.234375 145.34375 C 118.234375 145.261719 118.316406 145.183594 118.316406 145.027344 L 118.316406 141.632812 C 118.316406 141.472656 118.316406 141.394531 118.234375 141.316406 C 118.234375 141.238281 118.15625 141.238281 118.078125 141.15625 C 118 141.15625 117.84375 141.078125 117.683594 141.078125 C 117.683594 141.078125 117.683594 141.078125 117.683594 141 C 117.683594 140.921875 117.683594 140.921875 117.683594 140.921875 L 120.597656 140.921875 C 120.675781 140.921875 120.675781 140.921875 120.675781 141 L 120.675781 141.949219 C 120.675781 141.949219 120.675781 141.949219 120.597656 141.949219 C 120.597656 141.949219 120.515625 141.949219 120.515625 141.949219 C 120.515625 141.710938 120.359375 141.472656 120.28125 141.316406 C 120.203125 141.15625 119.964844 141.078125 119.730469 141.078125 L 119.335938 141.078125 C 119.101562 141.078125 118.945312 141.078125 118.867188 141.15625 C 118.785156 141.238281 118.785156 141.316406 118.785156 141.550781 L 118.785156 143.050781 L 119.652344 143.050781 C 119.886719 143.050781 120.046875 142.972656 120.203125 142.894531 C 120.28125 142.816406 120.359375 142.65625 120.359375 142.5 C 120.359375 142.5 120.359375 142.5 120.4375 142.5 C 120.4375 142.5 120.515625 142.5 120.515625 142.5 L 120.515625 143.132812 C 120.515625 143.289062 120.515625 143.367188 120.515625 143.449219 L 120.515625 143.84375 C 120.515625 143.84375 120.515625 143.84375 120.4375 143.84375 C 120.359375 143.84375 120.359375 143.84375 120.359375 143.84375 C 120.359375 143.605469 120.28125 143.449219 120.203125 143.367188 C 120.125 143.289062 119.886719 143.210938 119.652344 143.210938 L 118.867188 143.210938 L 118.867188 144.867188 C 118.867188 145.027344 118.867188 145.105469 118.945312 145.183594 C 118.945312 145.261719 119.023438 145.261719 119.101562 145.34375 C 119.179688 145.34375 119.257812 145.421875 119.414062 145.421875 L 119.964844 145.421875 C 120.203125 145.421875 120.4375 145.34375 120.597656 145.183594 C 120.597656 145.027344 120.675781 144.789062 120.832031 144.550781 C 120.753906 144.550781 120.753906 144.472656 120.832031 144.550781 Z M 120.832031 144.550781 "/>
<path style=" stroke:none;fill-rule:nonzero;fill:url(#linear9);" d="M 135.148438 145.578125 C 135.148438 145.578125 135.070312 145.65625 135.148438 145.578125 C 134.992188 145.65625 134.835938 145.65625 134.757812 145.578125 L 133.65625 145.578125 C 133.574219 145.578125 133.417969 145.578125 133.339844 145.578125 C 133.339844 145.578125 133.339844 145.578125 133.339844 145.5 C 133.339844 145.421875 133.339844 145.421875 133.339844 145.421875 C 133.496094 145.421875 133.65625 145.421875 133.734375 145.421875 C 133.8125 145.421875 133.890625 145.34375 133.890625 145.261719 C 133.890625 145.183594 133.96875 145.105469 133.96875 144.949219 L 133.96875 141.632812 L 130.902344 145.578125 C 130.902344 145.578125 130.824219 145.578125 130.824219 145.578125 C 130.824219 145.578125 130.742188 145.578125 130.742188 145.578125 L 130.742188 141.550781 C 130.742188 141.394531 130.742188 141.316406 130.664062 141.238281 C 130.664062 141.15625 130.585938 141.15625 130.507812 141.078125 C 130.429688 141.078125 130.273438 141 130.113281 141 C 130.113281 141 130.113281 141 130.113281 140.921875 C 130.113281 140.84375 130.113281 140.84375 130.113281 140.84375 L 130.507812 140.84375 C 130.742188 140.84375 130.902344 140.84375 130.980469 140.84375 C 131.136719 140.84375 131.292969 140.84375 131.53125 140.84375 L 131.84375 140.84375 C 131.84375 140.84375 131.84375 140.84375 131.84375 140.921875 C 131.84375 141 131.84375 141 131.84375 141 C 131.6875 141 131.53125 141 131.453125 141.078125 C 131.375 141.078125 131.292969 141.15625 131.292969 141.238281 C 131.292969 141.316406 131.214844 141.394531 131.214844 141.550781 L 131.214844 144.867188 L 134.285156 140.921875 C 134.285156 140.921875 134.363281 140.921875 134.363281 140.921875 C 134.363281 140.921875 134.441406 140.921875 134.441406 140.921875 L 134.441406 144.867188 C 134.441406 145.027344 134.441406 145.105469 134.519531 145.183594 C 134.519531 145.261719 134.597656 145.261719 134.675781 145.34375 C 134.757812 145.421875 134.914062 145.5 135.148438 145.578125 C 135.070312 145.5 135.148438 145.578125 135.148438 145.578125 Z M 135.148438 145.578125 "/>
<path style=" stroke:none;fill-rule:nonzero;fill:url(#linear10);" d="M 140.890625 143.527344 C 141.128906 143.761719 141.207031 144 141.207031 144.316406 C 141.207031 144.550781 141.128906 144.789062 140.96875 145.027344 C 140.8125 145.261719 140.578125 145.421875 140.339844 145.5 C 140.105469 145.65625 139.789062 145.65625 139.476562 145.65625 C 139.238281 145.65625 139.082031 145.65625 138.847656 145.578125 C 138.6875 145.5 138.53125 145.5 138.375 145.34375 C 138.296875 145.34375 138.296875 145.261719 138.296875 145.261719 C 138.296875 145.261719 138.296875 145.183594 138.296875 145.183594 L 138.21875 144.316406 C 138.21875 144.316406 138.21875 144.316406 138.296875 144.316406 C 138.296875 144.316406 138.375 144.316406 138.375 144.316406 C 138.453125 144.550781 138.53125 144.789062 138.609375 144.949219 C 138.769531 145.105469 138.925781 145.261719 139.082031 145.34375 C 139.238281 145.421875 139.476562 145.5 139.632812 145.5 C 139.949219 145.5 140.183594 145.421875 140.339844 145.183594 C 140.5 144.949219 140.578125 144.710938 140.578125 144.394531 C 140.578125 144 140.5 143.683594 140.261719 143.527344 C 140.027344 143.289062 139.710938 143.210938 139.320312 143.210938 C 139.320312 143.210938 139.320312 143.210938 139.320312 143.132812 C 139.320312 143.050781 139.320312 143.050781 139.320312 143.050781 C 139.710938 143.050781 139.949219 142.972656 140.183594 142.738281 C 140.339844 142.578125 140.5 142.261719 140.5 141.949219 C 140.5 141.632812 140.421875 141.394531 140.261719 141.15625 C 140.105469 141 139.871094 140.84375 139.632812 140.84375 C 139.398438 140.84375 139.160156 140.921875 138.925781 141.15625 C 138.6875 141.316406 138.609375 141.632812 138.453125 142.027344 L 138.53125 141.15625 C 138.53125 141.078125 138.53125 141.078125 138.53125 141.078125 C 138.53125 141.078125 138.53125 141.078125 138.609375 141 C 139.003906 140.84375 139.320312 140.84375 139.710938 140.84375 C 140.105469 140.84375 140.421875 140.921875 140.65625 141.15625 C 140.890625 141.316406 140.96875 141.550781 140.96875 141.867188 C 140.96875 142.105469 140.890625 142.34375 140.65625 142.578125 C 140.421875 142.816406 140.261719 142.972656 139.949219 143.050781 C 140.421875 143.210938 140.65625 143.289062 140.890625 143.527344 Z M 140.890625 143.527344 "/>
<path style=" stroke:none;fill-rule:nonzero;fill:url(#linear11);" d="M 149.074219 145.5 C 149.074219 145.578125 149.074219 145.65625 149.074219 145.738281 C 149.074219 145.972656 148.996094 146.367188 148.996094 146.761719 C 148.996094 146.761719 148.996094 146.761719 148.914062 146.761719 C 148.835938 146.761719 148.835938 146.761719 148.835938 146.761719 C 148.835938 146.367188 148.757812 146.050781 148.523438 145.894531 C 148.285156 145.738281 147.972656 145.65625 147.578125 145.65625 L 145.535156 145.65625 C 144.824219 145.65625 144.433594 146.050781 144.433594 146.761719 C 144.433594 146.761719 144.433594 146.761719 144.351562 146.761719 C 144.351562 146.761719 144.273438 146.761719 144.273438 146.761719 C 144.273438 146.367188 144.273438 146.050781 144.195312 145.816406 C 144.195312 145.738281 144.195312 145.65625 144.195312 145.578125 C 144.195312 145.578125 144.195312 145.5 144.195312 145.5 C 144.195312 145.5 144.195312 145.5 144.273438 145.5 L 144.746094 145.5 L 146.554688 141.078125 C 146.554688 141.078125 146.554688 141.078125 146.632812 141.078125 C 146.714844 141.078125 146.714844 141.078125 146.714844 141.078125 L 148.601562 145.5 L 149.074219 145.5 C 149.074219 145.421875 149.074219 145.421875 149.074219 145.5 Z M 145.0625 145.421875 L 148.050781 145.421875 L 146.554688 141.789062 Z M 145.0625 145.421875 "/>
<path style=" stroke:none;fill-rule:nonzero;fill:url(#linear12);" d="M 155.367188 144.550781 C 155.367188 144.867188 155.367188 145.183594 155.367188 145.578125 C 155.367188 145.578125 155.367188 145.65625 155.367188 145.65625 C 155.367188 145.65625 155.289062 145.65625 155.289062 145.65625 L 152.21875 145.65625 C 152.21875 145.65625 152.21875 145.65625 152.21875 145.578125 C 152.21875 145.5 152.21875 145.5 152.21875 145.5 C 152.378906 145.5 152.535156 145.5 152.613281 145.5 C 152.691406 145.5 152.769531 145.421875 152.769531 145.34375 C 152.769531 145.261719 152.847656 145.183594 152.847656 145.027344 L 152.847656 141.632812 C 152.847656 141.472656 152.847656 141.394531 152.769531 141.316406 C 152.769531 141.238281 152.691406 141.238281 152.613281 141.15625 C 152.535156 141.15625 152.378906 141.078125 152.21875 141.078125 C 152.21875 141.078125 152.21875 141.078125 152.21875 141 C 152.21875 140.921875 152.21875 140.921875 152.21875 140.921875 L 155.128906 140.921875 C 155.210938 140.921875 155.210938 140.921875 155.210938 141 L 155.210938 141.949219 C 155.210938 141.949219 155.210938 141.949219 155.128906 141.949219 C 155.128906 141.949219 155.050781 141.949219 155.050781 141.949219 C 155.050781 141.710938 154.894531 141.472656 154.816406 141.316406 C 154.738281 141.15625 154.5 141.078125 154.265625 141.078125 L 153.871094 141.078125 C 153.636719 141.078125 153.480469 141.078125 153.398438 141.15625 C 153.320312 141.238281 153.320312 141.316406 153.320312 141.550781 L 153.320312 143.050781 L 154.1875 143.050781 C 154.421875 143.050781 154.578125 142.972656 154.738281 142.894531 C 154.816406 142.816406 154.894531 142.65625 154.894531 142.5 C 154.894531 142.5 154.894531 142.5 154.972656 142.5 C 155.050781 142.5 155.050781 142.5 155.050781 142.5 L 155.050781 143.132812 C 155.050781 143.289062 155.050781 143.367188 155.050781 143.449219 L 155.050781 143.84375 C 155.050781 143.84375 155.050781 143.84375 154.972656 143.84375 C 154.972656 143.84375 154.894531 143.84375 154.894531 143.84375 C 154.894531 143.605469 154.816406 143.449219 154.738281 143.367188 C 154.660156 143.289062 154.421875 143.210938 154.1875 143.210938 L 153.398438 143.210938 L 153.398438 144.867188 C 153.398438 145.027344 153.398438 145.105469 153.480469 145.183594 C 153.480469 145.261719 153.558594 145.261719 153.636719 145.34375 C 153.714844 145.34375 153.792969 145.421875 153.949219 145.421875 L 154.5 145.421875 C 154.738281 145.421875 154.972656 145.34375 155.128906 145.183594 C 155.128906 145.027344 155.210938 144.789062 155.367188 144.550781 C 155.289062 144.550781 155.289062 144.472656 155.367188 144.550781 Z M 155.367188 144.550781 "/>
<path style=" stroke:none;fill-rule:nonzero;fill:url(#linear13);" d="M 163.390625 145.578125 C 163.390625 145.578125 163.390625 145.65625 163.390625 145.578125 C 163.234375 145.65625 163.15625 145.578125 162.917969 145.578125 C 162.761719 145.578125 162.605469 145.578125 162.523438 145.578125 C 162.445312 145.578125 162.289062 145.578125 162.132812 145.578125 C 161.976562 145.578125 161.816406 145.578125 161.738281 145.578125 C 161.738281 145.578125 161.738281 145.578125 161.738281 145.5 C 161.738281 145.421875 161.738281 145.421875 161.738281 145.421875 C 161.894531 145.421875 162.054688 145.421875 162.132812 145.34375 C 162.210938 145.34375 162.210938 145.261719 162.210938 145.183594 C 162.210938 145.105469 162.210938 145.027344 162.132812 144.867188 L 160.558594 141.632812 L 159.300781 144.550781 C 159.222656 144.710938 159.222656 144.867188 159.222656 144.949219 C 159.222656 145.261719 159.457031 145.421875 159.929688 145.421875 C 159.929688 145.421875 159.929688 145.421875 159.929688 145.5 C 159.929688 145.578125 159.929688 145.578125 159.929688 145.578125 C 159.851562 145.578125 159.691406 145.578125 159.535156 145.578125 C 159.378906 145.578125 159.222656 145.578125 159.0625 145.578125 C 158.90625 145.578125 158.828125 145.578125 158.59375 145.578125 C 158.433594 145.578125 158.355469 145.578125 158.199219 145.578125 C 158.199219 145.578125 158.199219 145.578125 158.199219 145.5 C 158.199219 145.421875 158.199219 145.421875 158.199219 145.421875 C 158.355469 145.421875 158.433594 145.421875 158.511719 145.34375 C 158.59375 145.261719 158.671875 145.183594 158.75 145.105469 C 158.828125 144.949219 158.90625 144.789062 159.0625 144.550781 L 160.558594 140.921875 C 160.558594 140.921875 160.558594 140.921875 160.636719 140.921875 C 160.636719 140.921875 160.714844 140.921875 160.714844 140.921875 L 162.445312 144.550781 C 162.605469 144.867188 162.761719 145.183594 162.839844 145.261719 C 163.074219 145.5 163.234375 145.5 163.390625 145.578125 C 163.390625 145.5 163.390625 145.578125 163.390625 145.578125 Z M 163.390625 145.578125 "/>
<path style=" stroke:none;fill-rule:nonzero;fill:url(#linear14);" d="M 171.257812 145.578125 C 171.257812 145.578125 171.257812 145.65625 171.257812 145.578125 C 171.101562 145.65625 170.941406 145.65625 170.863281 145.578125 L 169.761719 145.578125 C 169.683594 145.578125 169.527344 145.578125 169.449219 145.578125 C 169.449219 145.578125 169.449219 145.578125 169.449219 145.5 C 169.449219 145.421875 169.449219 145.421875 169.449219 145.421875 C 169.605469 145.421875 169.761719 145.421875 169.839844 145.421875 C 169.921875 145.421875 170 145.34375 170 145.261719 C 170 145.183594 170.078125 145.105469 170.078125 144.949219 L 170.078125 141.632812 L 167.007812 145.578125 C 167.007812 145.578125 166.929688 145.578125 166.929688 145.578125 C 166.929688 145.578125 166.851562 145.578125 166.851562 145.578125 L 166.851562 141.550781 C 166.851562 141.394531 166.851562 141.316406 166.773438 141.238281 C 166.773438 141.15625 166.695312 141.15625 166.617188 141.078125 C 166.539062 141.078125 166.378906 141 166.222656 141 C 166.222656 141 166.222656 141 166.222656 140.921875 C 166.222656 140.84375 166.222656 140.84375 166.222656 140.84375 L 166.617188 140.84375 C 166.851562 140.84375 167.007812 140.84375 167.089844 140.84375 C 167.246094 140.84375 167.402344 140.84375 167.636719 140.84375 L 167.953125 140.84375 C 167.953125 140.84375 167.953125 140.84375 167.953125 140.921875 C 167.953125 141 167.953125 141 167.953125 141 C 167.796875 141 167.636719 141 167.558594 141.078125 C 167.480469 141.078125 167.402344 141.15625 167.402344 141.238281 C 167.402344 141.316406 167.324219 141.394531 167.324219 141.550781 L 167.324219 144.867188 L 170.390625 140.921875 C 170.390625 140.921875 170.46875 140.921875 170.46875 140.921875 C 170.46875 140.921875 170.550781 140.921875 170.550781 140.921875 L 170.550781 144.867188 C 170.550781 145.027344 170.550781 145.105469 170.628906 145.183594 C 170.628906 145.261719 170.707031 145.261719 170.785156 145.34375 C 170.863281 145.421875 171.101562 145.5 171.257812 145.578125 C 171.257812 145.5 171.257812 145.578125 171.257812 145.578125 Z M 171.257812 145.578125 "/>
<path style=" stroke:none;fill-rule:nonzero;fill:url(#linear15);" d="M 178.179688 145.578125 C 178.179688 145.578125 178.179688 145.65625 178.179688 145.578125 C 178.023438 145.65625 177.867188 145.65625 177.785156 145.578125 L 176.84375 145.578125 C 176.765625 145.578125 176.605469 145.578125 176.449219 145.578125 C 176.449219 145.578125 176.449219 145.578125 176.449219 145.5 C 176.449219 145.421875 176.449219 145.421875 176.449219 145.421875 C 176.605469 145.421875 176.765625 145.421875 176.84375 145.421875 C 176.921875 145.421875 177 145.34375 177 145.261719 C 177 145.183594 177.078125 145.105469 177.078125 144.949219 L 177.078125 143.210938 C 176.921875 143.210938 176.765625 143.289062 176.683594 143.289062 C 176.605469 143.367188 176.449219 143.449219 176.292969 143.605469 C 176.132812 143.761719 175.976562 144 175.820312 144.316406 C 175.585938 144.710938 175.425781 145.027344 175.269531 145.183594 C 175.113281 145.34375 175.035156 145.421875 175.035156 145.5 C 174.953125 145.5 174.953125 145.578125 174.875 145.578125 L 174.089844 145.578125 C 174.089844 145.578125 174.089844 145.578125 174.089844 145.5 C 174.089844 145.421875 174.089844 145.421875 174.089844 145.421875 C 174.246094 145.421875 174.402344 145.34375 174.5625 145.261719 C 174.71875 145.183594 174.796875 145.027344 174.953125 144.867188 C 175.113281 144.710938 175.191406 144.472656 175.425781 144.15625 C 175.585938 143.84375 175.742188 143.605469 175.976562 143.449219 C 176.132812 143.289062 176.371094 143.210938 176.527344 143.132812 C 176.132812 143.132812 175.742188 142.972656 175.585938 142.816406 C 175.347656 142.65625 175.269531 142.34375 175.269531 142.105469 C 175.269531 141.867188 175.347656 141.710938 175.425781 141.550781 C 175.585938 141.394531 175.742188 141.238281 175.898438 141.15625 C 176.054688 141.078125 176.371094 141 176.605469 141 C 176.683594 141 176.84375 141 177 141 C 177.078125 141 177.15625 141 177.234375 141 C 177.316406 141 177.394531 141 177.472656 141 C 177.628906 141 177.785156 141 177.945312 141 L 178.335938 141 C 178.335938 141 178.335938 141 178.335938 141.078125 C 178.335938 141.15625 178.335938 141.15625 178.335938 141.15625 C 178.179688 141.15625 178.023438 141.15625 177.945312 141.238281 C 177.867188 141.238281 177.785156 141.316406 177.785156 141.394531 C 177.785156 141.472656 177.707031 141.550781 177.707031 141.710938 L 177.707031 145.105469 C 177.707031 145.261719 177.707031 145.34375 177.785156 145.421875 C 177.785156 145.5 177.867188 145.5 177.945312 145.578125 C 178.023438 145.65625 177.945312 145.5 178.179688 145.578125 C 178.179688 145.5 178.179688 145.578125 178.179688 145.578125 Z M 175.898438 142.816406 C 176.054688 143.050781 176.371094 143.132812 176.765625 143.132812 C 176.84375 143.132812 176.921875 143.132812 177 143.132812 L 177 141.632812 C 177 141.472656 176.921875 141.316406 176.84375 141.238281 C 176.765625 141.15625 176.605469 141.078125 176.449219 141.078125 C 175.898438 141.078125 175.664062 141.394531 175.664062 141.949219 C 175.585938 142.34375 175.742188 142.65625 175.898438 142.816406 Z M 175.898438 142.816406 "/>
<path style=" stroke:none;fill-rule:nonzero;fill:url(#linear16);" d="M 39.492188 120.710938 L 36.972656 120.710938 C 33.199219 120.710938 29.65625 118.65625 28.003906 115.183594 C 27.925781 115.027344 27.847656 114.949219 27.847656 114.789062 L 20.769531 99.394531 L 20.375 98.527344 L 16.207031 89.527344 C 16.046875 89.210938 15.574219 89.210938 15.417969 89.527344 L 11.09375 98.683594 L 10.777344 99.394531 L 0.945312 120.472656 C 0.867188 120.632812 0.707031 120.710938 0.550781 120.710938 C 0.234375 120.710938 0 120.394531 0.15625 120.078125 L 9.832031 99.394531 L 10.148438 98.683594 L 17.308594 83.449219 C 17.386719 83.289062 17.542969 83.210938 17.699219 83.210938 L 20.609375 83.210938 C 20.769531 83.210938 20.925781 83.289062 21.003906 83.449219 L 27.769531 98.367188 L 28.320312 99.550781 L 35.242188 114.789062 C 36.421875 117.238281 37.523438 118.972656 38.625 120 C 38.863281 120.238281 39.175781 120.472656 39.492188 120.710938 Z M 39.492188 120.710938 "/>
<path style=" stroke:none;fill-rule:nonzero;fill:url(#linear17);" d="M 76.070312 83.527344 L 62.304688 113.050781 C 62.148438 113.367188 61.675781 113.367188 61.515625 113.050781 C 61.515625 113.050781 47.988281 84.472656 47.121094 83.449219 C 47.042969 83.367188 46.808594 83.289062 46.808594 83.289062 L 40.75 83.289062 C 40.433594 83.289062 40.199219 83.683594 40.433594 83.921875 C 40.984375 84.789062 41.613281 85.894531 42.164062 87.15625 L 57.664062 120.472656 C 57.742188 120.632812 57.898438 120.710938 58.054688 120.710938 L 59.316406 120.710938 C 59.472656 120.710938 59.628906 120.632812 59.707031 120.472656 L 77.015625 83.84375 C 77.171875 83.527344 76.9375 83.210938 76.621094 83.210938 L 76.464844 83.210938 C 76.226562 83.289062 76.070312 83.367188 76.070312 83.527344 Z M 76.070312 83.527344 "/>
<path style=" stroke:none;fill-rule:nonzero;fill:url(#linear18);" d="M 121.699219 120.710938 L 119.179688 120.710938 C 115.402344 120.710938 111.863281 118.65625 110.210938 115.183594 C 110.132812 115.027344 110.054688 114.949219 110.054688 114.789062 L 98.332031 89.449219 C 98.175781 89.132812 97.703125 89.132812 97.546875 89.449219 L 83.070312 120.394531 C 82.992188 120.550781 82.835938 120.632812 82.679688 120.632812 C 82.363281 120.632812 82.128906 120.316406 82.285156 120 L 99.433594 83.367188 C 99.511719 83.210938 99.671875 83.132812 99.828125 83.132812 L 102.738281 83.132812 C 102.894531 83.132812 103.054688 83.210938 103.132812 83.367188 L 117.371094 114.710938 C 118.550781 117.15625 119.652344 118.894531 120.753906 119.921875 C 120.988281 120.238281 121.304688 120.472656 121.699219 120.710938 Z M 121.699219 120.710938 "/>
<path style=" stroke:none;fill-rule:nonzero;fill:url(#linear19);" d="M 164.492188 83.683594 L 164.492188 111.078125 C 164.492188 111.472656 164.019531 111.632812 163.785156 111.394531 L 139.003906 83.527344 C 138.847656 83.449219 138.609375 83.367188 138.453125 83.289062 L 133.183594 83.289062 C 132.867188 83.289062 132.710938 83.605469 132.789062 83.84375 C 133.183594 84.789062 133.417969 85.972656 133.417969 87.316406 L 133.417969 120.238281 C 133.417969 120.472656 133.574219 120.632812 133.8125 120.632812 L 134.046875 120.632812 C 134.285156 120.632812 134.441406 120.472656 134.441406 120.238281 L 134.441406 89.367188 C 134.441406 88.972656 134.914062 88.816406 135.148438 89.050781 L 161.03125 117.949219 C 162.523438 119.605469 164.726562 120.632812 166.929688 120.632812 C 167.167969 120.632812 167.324219 120.472656 167.324219 120.238281 L 167.324219 83.683594 C 167.324219 83.449219 167.167969 83.289062 166.929688 83.289062 L 164.886719 83.289062 C 164.648438 83.289062 164.492188 83.449219 164.492188 83.683594 Z M 164.492188 83.683594 "/>
<path style=" stroke:none;fill-rule:nonzero;fill:url(#linear20);" d="M 214.839844 83.605469 L 214.839844 83.683594 C 214.839844 83.921875 214.679688 84.078125 214.445312 84.078125 L 198.789062 84.078125 C 198.554688 84.078125 198.398438 84.238281 198.398438 84.472656 L 198.398438 120.238281 C 198.398438 120.472656 198.238281 120.632812 198.003906 120.632812 L 192.261719 120.632812 C 192.023438 120.632812 191.867188 120.472656 191.867188 120.238281 L 191.867188 84.472656 C 191.867188 84.238281 191.710938 84.078125 191.476562 84.078125 L 175.820312 84.078125 C 175.585938 84.078125 175.425781 83.921875 175.425781 83.683594 L 175.425781 83.605469 C 175.425781 83.367188 175.585938 83.210938 175.820312 83.210938 L 214.523438 83.210938 C 214.679688 83.132812 214.839844 83.367188 214.839844 83.605469 Z M 214.839844 83.605469 "/>
<path style=" stroke:none;fill-rule:nonzero;fill:url(#linear21);" d="M 234.503906 119.367188 C 232.300781 119.367188 230.886719 118.738281 230.257812 117.550781 C 229.628906 116.367188 229.3125 114.710938 229.3125 112.738281 L 229.3125 83.605469 C 229.3125 83.367188 229.15625 83.210938 228.921875 83.210938 L 223.175781 83.210938 C 222.941406 83.210938 222.785156 83.367188 222.785156 83.605469 L 222.785156 112.738281 C 222.785156 114.949219 222.941406 116.605469 223.335938 117.789062 C 223.726562 118.972656 224.4375 119.683594 225.378906 120.078125 C 226.324219 120.472656 227.660156 120.710938 229.390625 120.710938 L 235.527344 120.710938 C 235.765625 120.710938 235.921875 120.550781 235.921875 120.316406 L 235.921875 119.84375 C 235.921875 119.605469 235.765625 119.449219 235.527344 119.449219 L 234.503906 119.449219 Z M 234.503906 119.367188 "/>
<path style=" stroke:none;fill-rule:nonzero;fill:url(#linear22);" d="M 66.078125 105.15625 C 61.675781 98.132812 57.820312 90.789062 54.753906 83.289062 L 55.539062 82.972656 C 58.605469 90.472656 62.460938 97.738281 66.867188 104.683594 Z M 66.078125 105.15625 "/>
<path style=" stroke:none;fill-rule:nonzero;fill:url(#linear23);" d="M 82.835938 120.949219 L 82.128906 120.394531 C 88.972656 111.238281 96.996094 102.710938 105.886719 95.132812 L 106.4375 95.761719 C 97.625 103.34375 89.679688 111.867188 82.835938 120.949219 Z M 82.835938 120.949219 "/>
<path style=" stroke:none;fill-rule:nonzero;fill:url(#linear24);" d="M 0.707031 120.949219 L 0 120.472656 C 6.84375 111.238281 14.867188 102.710938 23.835938 95.050781 L 24.386719 95.683594 C 15.496094 103.34375 7.550781 111.789062 0.707031 120.949219 Z M 0.707031 120.949219 "/>
<path style=" stroke:none;fill-rule:nonzero;fill:url(#linear25);" d="M 98.492188 31.261719 L 100.0625 31.261719 C 102.34375 31.261719 104.546875 30 105.492188 27.867188 C 105.492188 27.789062 105.570312 27.710938 105.570312 27.632812 L 109.898438 18.238281 L 110.132812 17.683594 L 112.652344 12.15625 C 112.730469 11.921875 113.042969 11.921875 113.121094 12.15625 L 115.71875 17.761719 L 115.953125 18.15625 L 122.011719 31.027344 C 122.089844 31.105469 122.167969 31.183594 122.246094 31.183594 C 122.40625 31.183594 122.5625 30.949219 122.484375 30.789062 L 116.585938 18.15625 L 116.425781 17.761719 L 112.101562 8.449219 C 112.019531 8.367188 111.941406 8.289062 111.863281 8.289062 L 110.132812 8.289062 C 110.054688 8.289062 109.976562 8.367188 109.898438 8.449219 L 105.726562 17.527344 L 105.414062 18.238281 L 101.085938 27.632812 C 100.378906 29.132812 99.671875 30.238281 99.042969 30.789062 C 98.882812 31.027344 98.726562 31.105469 98.492188 31.261719 Z M 98.492188 31.261719 "/>
<path style=" stroke:none;fill-rule:nonzero;fill:url(#linear26);" d="M 98.492188 31.578125 L 100.0625 31.578125 C 102.34375 31.578125 104.546875 32.84375 105.492188 34.972656 C 105.492188 35.050781 105.570312 35.132812 105.570312 35.210938 L 109.898438 44.605469 L 110.132812 45.15625 L 112.652344 50.683594 C 112.730469 50.921875 113.042969 50.921875 113.121094 50.683594 L 115.71875 45.078125 L 115.953125 44.683594 L 122.011719 31.816406 C 122.089844 31.738281 122.167969 31.65625 122.246094 31.65625 C 122.40625 31.65625 122.5625 31.894531 122.484375 32.050781 L 116.585938 44.683594 L 116.425781 45 L 112.101562 54.316406 C 112.019531 54.394531 111.941406 54.472656 111.863281 54.472656 L 110.132812 54.472656 C 110.054688 54.472656 109.976562 54.394531 109.898438 54.316406 L 105.726562 45.238281 L 105.414062 44.527344 L 101.164062 35.210938 C 100.457031 33.710938 99.75 32.605469 99.121094 32.050781 C 98.882812 31.816406 98.726562 31.65625 98.492188 31.578125 Z M 98.492188 31.578125 "/>
<path style=" stroke:none;fill-rule:nonzero;fill:url(#linear27);" d="M 145.296875 33.632812 L 143.253906 33.632812 C 140.183594 33.632812 137.351562 31.894531 136.015625 29.132812 C 135.9375 29.050781 135.9375 28.894531 135.855469 28.816406 L 130.113281 16.261719 L 129.800781 15.550781 L 126.417969 8.210938 C 126.261719 7.972656 125.945312 7.972656 125.789062 8.210938 L 122.328125 15.710938 L 122.089844 16.261719 L 114.066406 33.394531 C 113.988281 33.550781 113.910156 33.632812 113.753906 33.632812 C 113.515625 33.632812 113.359375 33.394531 113.4375 33.15625 L 121.304688 16.34375 L 121.539062 15.789062 L 127.363281 3.472656 C 127.441406 3.316406 127.519531 3.238281 127.675781 3.238281 L 130.035156 3.238281 C 130.191406 3.238281 130.273438 3.316406 130.351562 3.472656 L 135.855469 15.550781 L 136.328125 16.5 L 141.914062 28.816406 C 142.859375 30.789062 143.800781 32.210938 144.667969 33 C 144.824219 33.238281 145.0625 33.472656 145.296875 33.632812 Z M 145.296875 33.632812 "/>
<path style=" stroke:none;fill-rule:nonzero;fill:url(#linear28);" d="M 145.296875 33.867188 L 143.253906 33.867188 C 140.183594 33.867188 137.351562 35.605469 136.015625 38.367188 C 135.9375 38.449219 135.9375 38.605469 135.855469 38.683594 L 130.113281 51.238281 L 129.800781 51.949219 L 126.417969 59.289062 C 126.261719 59.527344 125.945312 59.527344 125.789062 59.289062 L 122.328125 51.789062 L 122.089844 51.238281 L 114.066406 34.105469 C 113.988281 33.949219 113.910156 33.867188 113.753906 33.867188 C 113.515625 33.867188 113.359375 34.105469 113.4375 34.34375 L 121.304688 51.15625 L 121.539062 51.710938 L 127.363281 64.027344 C 127.441406 64.183594 127.519531 64.261719 127.675781 64.261719 L 130.035156 64.261719 C 130.191406 64.261719 130.273438 64.183594 130.351562 64.027344 L 135.855469 51.949219 L 136.328125 51 L 141.914062 38.683594 C 142.859375 36.710938 143.800781 35.289062 144.667969 34.5 C 144.824219 34.183594 145.0625 34.027344 145.296875 33.867188 Z M 145.296875 33.867188 "/>
<path style=" stroke:none;fill-rule:nonzero;fill:url(#linear29);" d="M 122.40625 31.5 C 122.328125 31.5 122.246094 31.5 122.167969 31.421875 C 118 25.816406 113.121094 20.605469 107.695312 15.949219 C 107.617188 15.867188 107.539062 15.710938 107.695312 15.550781 C 107.773438 15.472656 107.929688 15.394531 108.089844 15.550781 C 113.515625 20.210938 118.472656 25.421875 122.640625 31.105469 C 122.71875 31.183594 122.71875 31.421875 122.5625 31.5 C 122.5625 31.5 122.484375 31.5 122.40625 31.5 Z M 122.40625 31.5 "/>
<path style=" stroke:none;fill-rule:nonzero;fill:url(#linear30);" d="M 107.929688 47.289062 C 107.851562 47.289062 107.773438 47.289062 107.695312 47.210938 C 107.617188 47.132812 107.617188 46.894531 107.695312 46.816406 C 113.121094 42.15625 118 36.949219 122.167969 31.34375 C 122.246094 31.261719 122.40625 31.183594 122.5625 31.261719 C 122.640625 31.34375 122.71875 31.5 122.640625 31.65625 C 118.472656 37.261719 113.515625 42.472656 108.089844 47.210938 C 108.007812 47.289062 107.929688 47.289062 107.929688 47.289062 Z M 107.929688 47.289062 "/>
<path style=" stroke:none;fill-rule:nonzero;fill:url(#linear31);" d="M 113.515625 33.949219 C 113.4375 33.949219 113.359375 33.949219 113.28125 33.867188 C 113.121094 33.789062 113.121094 33.550781 113.203125 33.394531 C 118.785156 25.894531 125.316406 18.949219 132.554688 12.789062 C 132.710938 12.632812 132.945312 12.710938 133.023438 12.789062 C 133.183594 12.949219 133.105469 13.183594 133.023438 13.261719 C 125.789062 19.421875 119.335938 26.367188 113.753906 33.789062 C 113.753906 33.867188 113.671875 33.949219 113.515625 33.949219 Z M 113.515625 33.949219 "/>
<path style=" stroke:none;fill-rule:nonzero;fill:url(#linear32);" d="M 132.867188 54.789062 C 132.789062 54.789062 132.710938 54.789062 132.632812 54.710938 C 125.394531 48.472656 118.867188 41.527344 113.28125 34.105469 C 113.203125 33.949219 113.203125 33.710938 113.359375 33.632812 C 113.515625 33.550781 113.753906 33.550781 113.832031 33.710938 C 119.414062 41.132812 125.867188 48 133.105469 54.238281 C 133.261719 54.394531 133.261719 54.550781 133.105469 54.710938 C 133.023438 54.710938 132.945312 54.789062 132.867188 54.789062 Z M 132.867188 54.789062 "/>
</g>
</svg>
