<?xml version="1.0" encoding="utf-8"?>
<!-- Generator: Adobe Illustrator 26.2.1, SVG Export Plug-In . SVG Version: 6.00 Build 0)  -->
<svg version="1.1" id="Слой_1" xmlns="http://www.w3.org/2000/svg" xmlns:xlink="http://www.w3.org/1999/xlink" x="0px" y="0px"
	 viewBox="0 0 100 100" style="enable-background:new 0 0 100 100;" xml:space="preserve">
<style type="text/css">
	.st0{fill:#DDCB78;}
</style>
<path class="st0" d="M50,0c13.3,0,26,5.3,35.4,14.6C94.7,24,100,36.7,100,50s-5.3,26-14.6,35.4C76,94.7,63.3,100,50,100
	s-26-5.3-35.4-14.6C5.3,76,0,63.3,0,50s5.3-26,14.6-35.4C24,5.3,36.7,0,50,0z M41.2,71.3l-20.1,9.6c7.8,7.4,18.2,11.4,28.9,11.4
	l-1.4,0L41.2,71.3z M58.8,71.3l-7.5,21c10.3-0.3,20.1-4.4,27.6-11.4L58.8,71.3z M7.7,51.4C8,61.6,12.1,71.4,19.1,78.9l9.5-20.1
	L7.7,51.4z M92.3,51.4l-21,7.5l9.5,20.1c7.4-7.8,11.5-18.2,11.4-28.9L92.3,51.4z M50,38c-1.6,0-3.2,0.2-4.7,0.8
	c-1.5,0.6-2.9,1.5-4,2.6c-1.2,1.1-2.1,2.5-2.7,3.9c-0.6,1.5-0.9,3.1-0.9,4.7c0,1.6,0.3,3.2,0.9,4.7c0.6,1.5,1.5,2.8,2.7,3.9
	c1.2,1.1,2.5,2,4,2.6c1.5,0.6,3.1,0.9,4.7,0.8c3.1-0.1,6.1-1.4,8.3-3.6c2.2-2.3,3.4-5.3,3.4-8.4c0-3.1-1.2-6.2-3.4-8.4
	C56.1,39.3,53.2,38,50,38z M19.1,21.1C11.8,28.9,7.7,39.3,7.7,50l0-1.4l21-7.4L19.1,21.1z M80.9,21.1l-9.6,20.1l21,7.4
	C92,38.4,87.9,28.6,80.9,21.1z M51.4,7.7l7.5,21l20.1-9.5C71.1,11.8,60.8,7.7,50,7.7L51.4,7.7z M48.6,7.7
	C38.4,8,28.6,12.1,21.1,19.1l20.1,9.5L48.6,7.7z"/>
</svg>
